<svg id="Layer_1" data-name="Layer 1" xmlns="http://www.w3.org/2000/svg" viewBox="0 0 183.9 133.93"><defs><style>.cls-1{fill:#231f20;}</style></defs><path class="cls-1" d="M35.55,38a259.78,259.78,0,0,0-.8,31.07.5.5,0,0,0,1,0c.51-4.51,1-9,1.54-13.54a39.58,39.58,0,0,1,2.26-9.79c1.22-3.08,3.22-6,6.3-7.42.71-.33,1.42-.47,1.91.27a7.13,7.13,0,0,1,.61,1.2A8.55,8.55,0,0,1,49,42.67a8.79,8.79,0,0,1-1.42,5.08,8.53,8.53,0,0,1-11.48,2.18c-.54-.34-1.05.52-.5.87a9.68,9.68,0,0,0,11-.52,9.57,9.57,0,0,0,2.77-10.82c-.66-1.66-1.59-3-3.51-2.21a11.81,11.81,0,0,0-4.52,3.46c-2.51,3.09-3.68,7.08-4.4,10.92-1.07,5.74-1.47,11.64-2.13,17.44h1A259.78,259.78,0,0,1,36.55,38c.06-.65-.94-.64-1,0Z" transform="translate(-34.6 -32.53)"/><path class="cls-1" d="M48.55,60.41l.24,11.39,1-.14c-2.17-5.72,4.71-12.4,10.36-9.82L60,61.15C57.26,66.21,63.2,72.79,68.44,70a7.58,7.58,0,0,0,3.78-6.7,6.42,6.42,0,0,0-4.35-5.92,7.89,7.89,0,0,0-8.57,2,.5.5,0,0,0,.22.83,17,17,0,0,0,19.31-5.41c4.5-5.64,6.11-13,10.44-18.71l-.91-.39a297.88,297.88,0,0,1-7.6,30.6c-.17.53.66.9.91.38,1.5-3,3-6.21,5.68-8.42S93.7,55.13,96.69,57l-.23-.57A14,14,0,0,1,83.7,65.11a.5.5,0,0,0-.13,1c6.48,2.7,13.91,1.37,19.74-2.29,6.34-4,10.36-10.62,12.32-17.73a49,49,0,0,0,1.65-13c0-.45-.73-.73-.94-.25A47.76,47.76,0,0,0,113,58.13c.47,3.32,1.76,6.36,5.65,6a19.88,19.88,0,0,0,9.77-3.81,21.15,21.15,0,0,0,3.91-3.65,21.75,21.75,0,0,0,1.4-1.91c.29-.45,1-1.26.91-1.84-.14-.91-1.4-1.74-2.18-2a5.23,5.23,0,0,0-3.25,0,6.38,6.38,0,0,0-4.48,4.73c-.4,2.63,1.44,5.07,3.6,6.33a10.71,10.71,0,0,0,9.55.43c4-1.7,6.89-5.09,9.63-8.31l-.85-.35.26,6.35a.5.5,0,0,0,.93.25A33,33,0,0,1,161.59,49l-.75-.44a35.63,35.63,0,0,1-2.11,13.18c-.18.5.5.8.84.49a75.55,75.55,0,0,1,15.69-11l-.76-.43c-.41,6.14,5.4,10.6,11,11.41C193,63.31,200,58.3,205.73,54.12c.51-.38,0-1.25-.51-.87-5.34,3.89-11.61,8.53-18.59,8.09-5.47-.34-11.53-4.52-11.13-10.52a.51.51,0,0,0-.75-.44,77.18,77.18,0,0,0-15.89,11.18l.84.49a36.65,36.65,0,0,0,2.14-13.45.51.51,0,0,0-.75-.43A33.85,33.85,0,0,0,147,59.93l.93.25-.26-6.35c0-.4-.56-.7-.86-.35-4.31,5.08-11.21,12.18-18.35,7.48-2.57-1.7-3.82-5.08-1.43-7.49,1.73-1.75,5.29-2.8,6.7-.12v-.51A20.13,20.13,0,0,1,125.5,61,19.8,19.8,0,0,1,120,63a5.84,5.84,0,0,1-3.85-.15,4,4,0,0,1-1.73-2.45,26,26,0,0,1-.88-6.4,46.14,46.14,0,0,1,3.66-20.67l-.93-.26c0,7.32-1.36,14.82-5.13,21.18A24.88,24.88,0,0,1,94.94,66.12a18.94,18.94,0,0,1-11.11-1l-.13,1a15,15,0,0,0,13.73-9.45.52.52,0,0,0-.23-.57c-3-1.82-6.77-1.19-9.57.72-3.27,2.24-5.12,5.94-6.82,9.39l.91.38A294.49,294.49,0,0,0,89.32,36a.5.5,0,0,0-.91-.39c-4,5.35-5.68,12-9.51,17.47a16.22,16.22,0,0,1-19.12,6.2l.22.83a7,7,0,0,1,8.17-1.52,5.58,5.58,0,0,1,2.62,7.16c-1,2.71-3.84,4.77-6.75,3.61s-4.74-4.84-3.22-7.69a.52.52,0,0,0-.18-.69c-6.37-2.9-14.35,4.33-11.83,11,.19.5,1,.47,1-.13l-.24-11.39c0-.64-1-.64-1,0Z" transform="translate(-34.6 -32.53)"/><path class="cls-1" d="M99,91.76c-2-.67-4.21-1.41-6.29-.76a4.59,4.59,0,0,0-3.13,3.15c-.39,1.68.68,3,1.93,4,1.81,1.39,3.68,2.67,5.38,4.21a45,45,0,0,1,4.74,5c.56.7,1.39,1.74,1.31,2.71-.16,1.75-2.62.78-3.66.45a15.86,15.86,0,0,1-6.38-3.47,2.21,2.21,0,0,1,.12-3.32,5.11,5.11,0,0,1,3.79-1,100.71,100.71,0,0,1,15.57,2c1.28.25,2.55.51,3.82.79a6.8,6.8,0,0,0,2.61.29,2,2,0,0,0,1.61-2.54c-.48-1.18-2.39-1.46-3.5-1.36a5.72,5.72,0,0,0-3.8,2c-2.15,2.56-1.06,6.34,1.43,8.22,3.19,2.41,7.79,1.08,10.08-1.93a6.2,6.2,0,0,0,1.15-5.8,4.28,4.28,0,0,0-4-2.83.5.5,0,0,0,0,1c2.28,0,3.54,2.24,3.22,4.3a6.69,6.69,0,0,1-3.58,4.73c-3.37,1.76-7.87.22-8.45-3.82a4.18,4.18,0,0,1,2.14-4.27,4.56,4.56,0,0,1,2.39-.61c.77,0,2.94.82,1.58,1.77-.84.59-2.47-.07-3.36-.26-1.11-.24-2.22-.47-3.34-.68-2.16-.41-4.32-.76-6.5-1.07s-4.28-.55-6.43-.75a13.77,13.77,0,0,0-5.39.08c-2.73.87-3.94,4-1.64,6a17.48,17.48,0,0,0,4.48,2.7,14.27,14.27,0,0,0,4.76,1.4,2,2,0,0,0,2.23-1.69,4.92,4.92,0,0,0-1.31-3.42,45.34,45.34,0,0,0-9.32-8.82,8.51,8.51,0,0,1-2.33-2,2.5,2.5,0,0,1,.46-3.29c2-2,5-1,7.32-.18.61.21.87-.76.26-1Z" transform="translate(-34.6 -32.53)"/><path class="cls-1" d="M132.76,89.33l-.51,13.26c-.1,2.65-.65,6.19,1.24,8.41,1.74,2,4.64,1.5,6.4-.2,2.51-2.41,2-6.24,1.53-9.33l-.92.38,4.31,9.22c.18.37.67.26.87,0a24.22,24.22,0,0,0,4.49-10l-.62.35c3.89,1.6,8.75,3.3,12.88,1.57,1.41-.6,3.86-2.19,3.29-4.06-.5-1.67-2.86-1.93-4.29-1.65-3.79.77-6.36,5.24-4.83,8.84,1.41,3.34,5.45,5,8.91,4.35,4.81-1,7.49-6.2,7.12-10.78a.5.5,0,0,0-1,0,13.66,13.66,0,0,0,2,8.59.5.5,0,0,0,.91-.39,8.53,8.53,0,0,1,12.05-9.78c.58.27,1.09-.59.5-.87a9.53,9.53,0,0,0-13.51,10.92l.91-.39a12.8,12.8,0,0,1-1.83-8.08h-1a9.58,9.58,0,0,1-3.93,8.79,7.24,7.24,0,0,1-8.65-.66,5.43,5.43,0,0,1,.2-8.35c1.21-1,3.1-1.74,4.63-1,2.84,1.32-1.83,3.73-3.11,4-3.66.82-7.6-.64-11-2a.5.5,0,0,0-.62.34,23.22,23.22,0,0,1-4.39,9.77h.87l-4.31-9.21c-.26-.56-1-.13-.92.38.43,2.84,1,6.5-1.52,8.59A3.51,3.51,0,0,1,135,111a4.1,4.1,0,0,1-1.77-3.1c-.45-2.75,0-5.74.1-8.51l.39-10.07a.5.5,0,0,0-1,0Z" transform="translate(-34.6 -32.53)"/><path class="cls-1" d="M62.69,145.84c-3.42,3.34-7.08,7.32-6.85,12.44.21,4.66,3.87,7.61,8.4,7.76,8.41.27,15.65-9.35,10.58-16.88-2.51-3.73-7.22-6-11.64-4.63-.52.16-.45,1.06.13,1,5.62-.74,11,2.39,16.58,1.47,3.74-.62,7.77-3.06,7.79-7.26a.5.5,0,0,0-1-.14,72.43,72.43,0,0,0-2.16,18.54c0,.55.87.71,1,.14.61-2.87,2.89-5.55,5.94-5.87a5.53,5.53,0,0,1,5.93,5c.11,3.2-3.22,5.11-6.05,5.31a15.76,15.76,0,0,1-5.41-.77c-1.15-.33-4.55-1-4.25-2.71.11-.63-.86-.9-1-.27-.51,3,4.29,3.82,6.32,4.3,3.15.74,6.63.74,9.23-1.43,4.73-3.95.49-11.29-5.21-10.41a8.3,8.3,0,0,0-6.5,6.55l1,.13a71.65,71.65,0,0,1,2.12-18.27l-1-.13c0,4.28-4.86,6.33-8.55,6.43-5,.15-9.74-2.31-14.82-1.64l.13,1a9.43,9.43,0,0,1,9.57,3,9.06,9.06,0,0,1,1.6,10.18,11.7,11.7,0,0,1-8.45,6.27c-4.34.7-8.89-1.57-9.29-6.27-.44-5,3.22-8.87,6.52-12.1.47-.45-.24-1.16-.7-.71Z" transform="translate(-34.6 -32.53)"/><path class="cls-1" d="M112.27,151.67a11.44,11.44,0,0,0-7.85,2.84.5.5,0,0,0,.1.78,28.89,28.89,0,0,1,8.33,7.51l.3-.73-8,1.65.61.61c1.25-5.05,8.67-2.78,12.19-3.36a5.42,5.42,0,0,0,4.14-2.77,4.1,4.1,0,0,0,.06-4.13,3.48,3.48,0,0,0-4.29-.92,4.82,4.82,0,0,0-2.61,3.41c-.81,3.59,1.8,6.56,5.29,7.08,4.91.72,8.69-3,10.79-7l-.91-.12L131.8,165l1-.27a10.2,10.2,0,0,1,9-12.21c.64,0,.65-1,0-1a11.2,11.2,0,0,0-10,13.48c.16.63,1.06.35,1-.27l-1.36-8.52a.51.51,0,0,0-.92-.12c-1.67,3.19-4.39,6.37-8.24,6.62-3.34.22-6.73-2.09-6-5.75a3.77,3.77,0,0,1,2.69-3.1c2.23-.51,3.23,1.44,2.59,3.28-1.41,4-6.53,2.78-9.79,2.81-2.78,0-6.13,1.11-6.87,4.12a.5.5,0,0,0,.61.61l8-1.65a.5.5,0,0,0,.3-.73,30.11,30.11,0,0,0-8.69-7.87l.1.78a10.41,10.41,0,0,1,7.14-2.54c.64,0,.64-1,0-1Z" transform="translate(-34.6 -32.53)"/><path class="cls-1" d="M145.09,152.41a28.13,28.13,0,0,0,4.7,11c.19.27.69.37.86,0a36,36,0,0,0,3-11.47l-1,.13a6.35,6.35,0,0,0,12.42.25.52.52,0,0,0-.23-.57c-4.93-2.25-10.22,3.77-7.83,8.46,2.48,4.88,9.47,5.12,12.91,1.27a11.07,11.07,0,0,0,2.5-9.08c-.08-.56-1-.41-1,.14a36.26,36.26,0,0,0,2.29,12.66.5.5,0,0,0,1-.27c-.6-2.6-1-5.79.68-8.1,1.32-1.82,4-2.78,5.93-1.39.52.37,1-.49.5-.86-2.19-1.57-5.19-.68-6.88,1.22-2.26,2.54-1.9,6.33-1.2,9.4l1-.27a35.2,35.2,0,0,1-2.26-12.39l-1,.13c.9,5.78-3.8,12.46-10.13,10-2.52-1-4.61-3.53-3.77-6.35s4-5,6.77-3.73l-.23-.57a5.35,5.35,0,0,1-10.48-.25c-.13-.58-.94-.39-1,.14a34.5,34.5,0,0,1-2.88,11h.86a27.35,27.35,0,0,1-4.59-10.73c-.13-.63-1.09-.36-1,.27Z" transform="translate(-34.6 -32.53)"/><path class="cls-1" d="M191.73,103.53A133.73,133.73,0,0,1,218,100.25c.64,0,.64-1,0-1a134.88,134.88,0,0,0-26.55,3.32c-.63.14-.36,1.1.26,1Z" transform="translate(-34.6 -32.53)"/><path class="cls-1" d="M187.2,164.73a1,1,0,0,0-.15.52,1.21,1.21,0,0,0,.12.53,1.16,1.16,0,0,0,.24.34,1.34,1.34,0,0,0,.45.29,1,1,0,0,0,.55,0,.94.94,0,0,0,.44-.23,1.06,1.06,0,0,0,.26-.3,1.28,1.28,0,0,0,.13-.39,1.23,1.23,0,0,0,0-.54,1,1,0,0,0-.28-.47.53.53,0,0,0-.36-.15.47.47,0,0,0-.35.15.48.48,0,0,0,0,.7l.06.07-.07-.1.06.11,0-.11a.83.83,0,0,1,0,.15l0-.13a.54.54,0,0,1,0,.18l0-.13a1.33,1.33,0,0,1-.05.19l.05-.11a1.4,1.4,0,0,1-.1.16l.08-.1a.68.68,0,0,1-.12.12l.11-.08-.13.07.12-.05-.12,0,.13,0a.29.29,0,0,1-.13,0l.13,0a.33.33,0,0,1-.14,0l.11,0a.46.46,0,0,1-.13-.08l.1.08a.62.62,0,0,1-.14-.14l.08.11a1.62,1.62,0,0,1-.1-.18l.05.12a.47.47,0,0,1,0-.17v.1a.28.28,0,0,1,0-.13l0,.12a.3.3,0,0,1,0-.08.49.49,0,0,0-.18-.68.5.5,0,0,0-.68.18Z" transform="translate(-34.6 -32.53)"/></svg>