<svg id="Layer_1" data-name="Layer 1" xmlns="http://www.w3.org/2000/svg" viewBox="0 0 183.41 133.43"><defs><style>.cls-1{fill:#231f20;}</style></defs><path class="cls-1" d="M35.8,38A259.78,259.78,0,0,0,35,69.07a.25.25,0,0,0,.5,0c.51-4.51,1-9,1.54-13.54a40.13,40.13,0,0,1,2.27-9.86c1.24-3.12,3.28-6.11,6.41-7.56.83-.39,1.69-.5,2.26.36a7,7,0,0,1,.61,1.22,8.49,8.49,0,0,1,.62,3,9,9,0,0,1-1.46,5.2,8.76,8.76,0,0,1-11.81,2.28.25.25,0,0,0-.26.43,9.42,9.42,0,0,0,10.68-.48,9.32,9.32,0,0,0,2.71-10.57c-.6-1.51-1.4-2.79-3.15-2.06a11.43,11.43,0,0,0-4.46,3.42c-2.48,3-3.63,7-4.33,10.81C36.06,57.42,35.66,63.29,35,69.07h.5A259.78,259.78,0,0,1,36.3,38c0-.32-.47-.32-.5,0Z" transform="translate(-34.85 -32.78)"/><path class="cls-1" d="M48.8,60.41,49,71.8l.49-.07c-2.26-6,4.89-12.77,10.73-10.11l-.09-.34c-2.57,4.83,3.12,11.17,8.15,8.5A7.32,7.32,0,0,0,72,63.3a6.18,6.18,0,0,0-4.16-5.68,7.68,7.68,0,0,0-8.34,2,.26.26,0,0,0,.11.42,16.8,16.8,0,0,0,19.07-5.35C83.14,49,84.74,41.72,89.06,36l-.46-.19A297,297,0,0,1,81,66.38c-.08.27.33.45.46.2,1.39-2.82,2.82-5.73,5.12-7.94S92.17,55.1,95.26,56c.33.1.89.19,1.09.45s.07.68-.13,1.09a13.25,13.25,0,0,1-1,1.71A14.4,14.4,0,0,1,92,62.55a14.1,14.1,0,0,1-8.32,2.81.25.25,0,0,0-.07.49c6.43,2.67,13.77,1.36,19.55-2.27,6.29-3.95,10.27-10.53,12.21-17.58A48.52,48.52,0,0,0,117,33c0-.23-.37-.36-.47-.12a47.31,47.31,0,0,0-3.36,25.15c.46,3.22,1.63,6.17,5.41,5.86a19.6,19.6,0,0,0,9.64-3.77,20.7,20.7,0,0,0,3.86-3.62,17.72,17.72,0,0,0,1.36-1.86c.25-.38.92-1.16.88-1.64-.06-.81-1.34-1.61-2-1.84a5,5,0,0,0-3.12.06,6.08,6.08,0,0,0-4.29,4.51c-.39,2.53,1.4,4.88,3.48,6.08a10.4,10.4,0,0,0,9.3.43c3.95-1.69,6.85-5.06,9.57-8.26l-.42-.18.26,6.35a.26.26,0,0,0,.47.13,33.23,33.23,0,0,1,13.87-11.49l-.38-.22A35.8,35.8,0,0,1,159,61.85c-.09.25.25.4.42.24A76,76,0,0,1,175.13,51l-.38-.21c-.4,6,5.32,10.38,10.82,11.16C193,63,199.92,58,205.6,53.9c.26-.19,0-.62-.25-.43C200,57.39,193.66,62,186.63,61.59c-5.6-.35-11.79-4.63-11.38-10.77a.25.25,0,0,0-.37-.22A76.41,76.41,0,0,0,159,61.74l.42.24a36.49,36.49,0,0,0,2.13-13.38.26.26,0,0,0-.38-.21,33.78,33.78,0,0,0-14.05,11.66l.47.13-.26-6.35c0-.2-.28-.35-.43-.18-3.72,4.38-8.5,9.87-14.89,8.91-2.61-.39-5.33-1.84-6.32-4.42a4.72,4.72,0,0,1,2.32-5.82,5.77,5.77,0,0,1,2.9-.86c.86,0,2.68.47,2.83,1.54.06.43-.61,1.24-.84,1.58a21.66,21.66,0,0,1-1.54,2,20.78,20.78,0,0,1-3.55,3.21,20,20,0,0,1-8.14,3.45c-1.88.33-3.83.3-4.95-1.52a12.07,12.07,0,0,1-1.21-4.87A46.77,46.77,0,0,1,117,33.16l-.46-.13c0,7.36-1.37,14.91-5.16,21.31A25.14,25.14,0,0,1,95,66.36a19.09,19.09,0,0,1-11.23-1l-.07.49a14.77,14.77,0,0,0,13.48-9.27.23.23,0,0,0-.11-.28c-2.92-1.78-6.59-1.14-9.31.72-3.23,2.2-5.05,5.89-6.74,9.29l.46.2a295.3,295.3,0,0,0,7.6-30.6.25.25,0,0,0-.45-.19c-4,5.35-5.69,12-9.52,17.47C74.74,59.42,67,62.27,59.72,59.51l.11.42a7.18,7.18,0,0,1,8.46-1.56A5.84,5.84,0,0,1,71,65.81c-1.05,2.83-4,5-7.06,3.78s-5-5.06-3.38-8.06a.25.25,0,0,0-.09-.34c-6.19-2.83-13.89,4.27-11.46,10.67.09.25.5.24.49-.06L49.3,60.41c0-.32-.51-.32-.5,0Z" transform="translate(-34.85 -32.78)"/><path class="cls-1" d="M98.94,92c-2.92-1-8.15-2-9.12,2.21-.35,1.58.67,2.81,1.84,3.72,1.82,1.4,3.7,2.68,5.41,4.24a44.17,44.17,0,0,1,4.74,5,4.77,4.77,0,0,1,1.38,2.88c-.1,2-2.8,1.07-4,.7a16.23,16.23,0,0,1-6.49-3.54,2.47,2.47,0,0,1,.13-3.68,5.31,5.31,0,0,1,4-1.1,100.56,100.56,0,0,1,15.64,2c1.28.24,2.55.51,3.82.79a6.47,6.47,0,0,0,2.47.28,1.71,1.71,0,0,0,1.47-2.16c-.43-1.11-2.28-1.33-3.29-1.24a5.5,5.5,0,0,0-3.63,1.92c-2,2.44-1,6,1.42,7.84,3.06,2.32,7.49,1,9.7-1.86a5.92,5.92,0,0,0,1.13-5.6,4,4,0,0,0-3.73-2.65.25.25,0,0,0,0,.5c2.43,0,3.8,2.37,3.46,4.59a6.88,6.88,0,0,1-3.7,4.91c-3.52,1.82-8.21.23-8.81-4A4.4,4.4,0,0,1,115,103.3a4.8,4.8,0,0,1,2.51-.65,3.81,3.81,0,0,1,1.11.2c.84.3,1.57,1.37.6,2s-2.58,0-3.55-.24-2.23-.47-3.35-.68c-2.15-.41-4.32-.76-6.49-1.07s-4.24-.55-6.37-.74a13.42,13.42,0,0,0-5.32.07c-2.57.82-3.69,3.7-1.53,5.59a17.31,17.31,0,0,0,4.42,2.67,13.85,13.85,0,0,0,4.64,1.36c3,.13,1.84-3.27.74-4.68a44.39,44.39,0,0,0-9.27-8.78,9,9,0,0,1-2.39-2,2.75,2.75,0,0,1,.47-3.62c2.06-2.06,5.18-1.06,7.56-.24.31.1.44-.38.14-.49Z" transform="translate(-34.85 -32.78)"/><path class="cls-1" d="M133,89.33l-.51,13.26c-.1,2.58-.65,6.07,1.16,8.23,1.64,2,4.39,1.41,6.06-.2,2.43-2.34,1.91-6.08,1.46-9.09l-.46.2,4.31,9.21c.09.19.33.13.43,0a23.76,23.76,0,0,0,4.47-10l-.31.18c3.82,1.57,8.61,3.27,12.68,1.59,1.3-.54,3.7-2,3.18-3.78-.45-1.52-2.7-1.72-4-1.47-3.66.73-6.16,5.06-4.66,8.53,1.38,3.21,5.28,4.85,8.61,4.18,4.7-1,7.29-6.07,6.93-10.54a.25.25,0,0,0-.5,0,13.51,13.51,0,0,0,1.93,8.46.25.25,0,0,0,.46-.19,8.79,8.79,0,0,1,12.42-10.07c.29.14.54-.29.25-.43a9.28,9.28,0,0,0-13.15,10.63l.46-.19a13,13,0,0,1-1.87-8.21h-.5a9.81,9.81,0,0,1-4,9,7.51,7.51,0,0,1-9-.69,5.67,5.67,0,0,1,.21-8.7c1.27-1.11,3.27-1.84,4.9-1.08,3.2,1.5-1.64,4.15-3.14,4.49-3.72.83-7.69-.62-11.09-2a.25.25,0,0,0-.31.17,23.55,23.55,0,0,1-4.41,9.83h.43l-4.31-9.22c-.13-.27-.49-.06-.45.2.44,2.93,1,6.66-1.59,8.83a3.77,3.77,0,0,1-4.2.72A4.32,4.32,0,0,1,133,108c-.46-2.78,0-5.79.09-8.58l.39-10.07a.25.25,0,0,0-.5,0Z" transform="translate(-34.85 -32.78)"/><path class="cls-1" d="M62.86,146c-3.36,3.29-7,7.2-6.77,12.26.21,4.52,3.76,7.37,8.15,7.51,8.23.26,15.33-9.13,10.36-16.51-2.44-3.63-7-5.83-11.36-4.51-.25.08-.22.53.07.49,5.6-.73,11,2.39,16.51,1.48,3.63-.6,7.59-2.94,7.61-7a.25.25,0,0,0-.49-.07,72.33,72.33,0,0,0-2.15,18.47c0,.28.44.36.5.07.63-3,3-5.73,6.18-6.05a5.79,5.79,0,0,1,6.18,5.28c.1,3.34-3.33,5.35-6.3,5.56a16,16,0,0,1-5.48-.78c-1.33-.39-4.76-1-4.42-3,0-.31-.43-.45-.48-.13-.48,2.79,4.31,3.56,6.14,4,3,.72,6.45.74,9-1.37,4.56-3.78.48-10.83-5-10a8,8,0,0,0-6.29,6.37l.49.06a71.81,71.81,0,0,1,2.13-18.34l-.49-.06c0,4.43-5,6.57-8.8,6.68-5,.15-9.75-2.31-14.82-1.64l.07.49a9.67,9.67,0,0,1,9.81,3,9.31,9.31,0,0,1,1.63,10.49,11.9,11.9,0,0,1-8.6,6.38c-4.5.74-9.19-1.64-9.6-6.51-.44-5.07,3.25-9,6.6-12.28.23-.22-.13-.58-.36-.35Z" transform="translate(-34.85 -32.78)"/><path class="cls-1" d="M112.27,151.92a11.17,11.17,0,0,0-7.67,2.76.26.26,0,0,0,.05.4,29.37,29.37,0,0,1,8.42,7.59l.15-.36-8,1.65.31.3c1.3-5.24,8.7-2.93,12.37-3.53a5.15,5.15,0,0,0,4-2.66,3.83,3.83,0,0,0,.06-3.88,3.22,3.22,0,0,0-3.94-.82,4.59,4.59,0,0,0-2.5,3.25c-.78,3.47,1.77,6.29,5.12,6.78,4.79.69,8.46-3,10.51-6.93l-.46-.06,1.37,8.52.48-.13a10.44,10.44,0,0,1,9.27-12.53c.32,0,.32-.52,0-.5A11,11,0,0,0,132,164.93c.08.32.53.18.48-.13l-1.37-8.52a.25.25,0,0,0-.45-.06c-1.72,3.27-4.51,6.49-8.46,6.74-3.5.23-7-2.25-6.29-6.06a4,4,0,0,1,2.87-3.28c2.41-.57,3.59,1.56,2.89,3.59-1.45,4.21-6.64,3-10,3-2.67,0-5.92,1-6.63,3.93a.26.26,0,0,0,.31.31l8-1.65a.25.25,0,0,0,.15-.37,29.7,29.7,0,0,0-8.6-7.77l0,.39a10.67,10.67,0,0,1,7.32-2.62c.32,0,.32-.49,0-.5Z" transform="translate(-34.85 -32.78)"/><path class="cls-1" d="M145.33,152.34A28.05,28.05,0,0,0,150,163.25c.1.13.35.19.44,0a35.76,35.76,0,0,0,3-11.34l-.49.06a6.1,6.1,0,0,0,11.93.25.24.24,0,0,0-.11-.28c-4.7-2.15-9.75,3.66-7.49,8.12,2.41,4.74,9.19,4.95,12.53,1.22a10.8,10.8,0,0,0,2.43-8.84c0-.28-.49-.21-.49.07A36.09,36.09,0,0,0,174,165.1a.25.25,0,0,0,.48-.13c-.61-2.69-1-5.95.74-8.32,1.39-1.91,4.19-2.92,6.24-1.46.27.19.52-.24.26-.43-2.11-1.5-5-.64-6.58,1.19-2.2,2.47-1.82,6.18-1.14,9.15l.48-.13a35.58,35.58,0,0,1-2.26-12.46l-.49.06a10.07,10.07,0,0,1-3,9.07,7.33,7.33,0,0,1-8.44.79c-2.84-1.61-4-5-2.13-7.81A6,6,0,0,1,162,152c.55-.09,1.75-.22,2.14.27s-.77,2-1.18,2.38a5.64,5.64,0,0,1-9.54-2.83c-.06-.29-.46-.2-.49.07A35,35,0,0,1,150,163h.44a27.59,27.59,0,0,1-4.63-10.79c-.06-.32-.54-.18-.48.13Z" transform="translate(-34.85 -32.78)"/><path class="cls-1" d="M191.67,103.29A134.25,134.25,0,0,1,218,100c.32,0,.32-.51,0-.5a134.82,134.82,0,0,0-26.48,3.31c-.32.07-.19.55.13.48Z" transform="translate(-34.85 -32.78)"/><path class="cls-1" d="M187.41,164.85a.84.84,0,0,0,0,.8,1,1,0,0,0,.54.52.85.85,0,0,0,1.07-.72.86.86,0,0,0-.23-.78.25.25,0,0,0-.35,0,.25.25,0,0,0,0,.36l0,0c0,.05,0,0,0,0l0,0v0c0-.07,0,0,0,0s0,.07,0,.11,0,0,0,0v.1s0-.07,0,0,0,0,0,.06,0,0,0,.05v0s0,0,0,0a.6.6,0,0,1-.06.11s-.06.07,0,0l-.05.05,0,0s0,0,0,0a.05.05,0,0,1-.05,0l0,0h0l-.06,0h0c.07,0,0,0,0,0h-.06s0,0,0,0h0l-.07,0s0,0,0,0h0l-.05,0h0l-.09-.09s0-.05,0,0l0,0,0-.07v0s0-.07,0,0a.14.14,0,0,1,0-.06.24.24,0,0,1,0-.08c0-.05,0,.05,0,0v-.11s0,0,0,0v-.07h0l0-.06a.28.28,0,0,0-.09-.35.27.27,0,0,0-.35.09Z" transform="translate(-34.85 -32.78)"/></svg>