<svg id="Layer_1" data-name="Layer 1" xmlns="http://www.w3.org/2000/svg" viewBox="0 0 204.01 448.64"><defs><style>.cls-1{fill:#fff;}</style></defs><path class="cls-1" d="M56.76,28.57l-4,3.25c-1.22,1-2.62,2-2.18,3.84.31,1.26,1.56,2.31,2.46,3.17a39.11,39.11,0,0,0,3.66,3c5.06,3.77,10.58,6.85,15.53,10.79S81.6,61.36,86,66a93.4,93.4,0,0,0,14.27,12.29c5.59,3.91,11.39,7.57,16.26,12.4a1.89,1.89,0,0,0,3.13-.83l1.75-5.69c.51-1.69,1.52-3.74,1.06-5.54a12.74,12.74,0,0,0-2.64-4.25,41.28,41.28,0,0,0-3.4-3.84c-4.64-4.67-9.86-8.75-14.6-13.33-9.26-9-17.94-18.61-28.48-26.11a71,71,0,0,0-9.26-5.63c-1.57-.78-3.37-1.87-5.12-.91a5,5,0,0,0-1.6,1.56c-.3.42-.51.89-1,1.13-2.15,1.09-.25,4.33,1.9,3.23A6.37,6.37,0,0,0,60.63,28c.25-.4.28,0,0-.11,0,0,.83.49.46.28.7.39,1.45.71,2.16,1.09a68.93,68.93,0,0,1,7.53,4.61A116.53,116.53,0,0,1,84.37,45.26c4.34,4.13,8.51,8.43,12.78,12.64s9,8.28,13.52,12.37a45.34,45.34,0,0,1,7.25,7.79c.39.56,1,1.17.89,1.86a15.91,15.91,0,0,1-.85,2.81l-1.89,6.16,3.13-.82c-8.28-8.23-19.08-13.28-27.39-21.48-4.38-4.32-8.33-9.06-12.9-13.19A113.83,113.83,0,0,0,64.29,42.46a62.28,62.28,0,0,1-8-5.7c-.58-.53-1.14-1.07-1.68-1.64L54.5,35c-.38-.59-.53-.38-.44.63a6.48,6.48,0,0,0,1-.83l4.35-3.55a1.89,1.89,0,0,0,0-2.65,1.92,1.92,0,0,0-2.65,0Z" transform="translate(-18.92 -22.19)"/><path class="cls-1" d="M54.31,35.09a30.18,30.18,0,0,0,10.38,8c1.57.73,3.67-.85,2.57-2.57A30,30,0,0,0,59,32l-1.9,3.24,6.69,4.06a1.88,1.88,0,0,0,2.56-2.56,48.38,48.38,0,0,0-5.62-7.28c-1.66-1.77-4.29.88-2.65,2.65a25.51,25.51,0,0,0,9.63,6.46c1.58.62,2.9-1.44,2.12-2.75a25.28,25.28,0,0,0-7-7.64,1.89,1.89,0,0,0-2.56.67,1.92,1.92,0,0,0,.67,2.57l6.41,4.71c1.55,1.13,3.52-1.05,2.57-2.56a31,31,0,0,0-7.15-8c-1.85-1.44-4.38.86-2.65,2.65q7.58,7.89,15.4,15.52l2.27-2.95a36.71,36.71,0,0,0-14.32-5.51C61.63,35,60.14,37,61.56,38.41a60,60,0,0,0,10.3,8.36c1.76,1.14,3.94-1.58,2.27-2.94a23.41,23.41,0,0,0-9.08-4.64,1.9,1.9,0,0,0-1.83,3.14,44.56,44.56,0,0,0,12.94,10.8c1.8,1,3.93-1.5,2.27-3a33,33,0,0,0-7.42-5c-1.5-.72-3.81.92-2.57,2.56a23.92,23.92,0,0,0,12.64,8.73c1.46.41,3.13-1.39,2.12-2.76A66.5,66.5,0,0,0,66.87,38.12a1.85,1.85,0,0,0-2.42.48,1.9,1.9,0,0,0,.14,2.46A24.64,24.64,0,0,0,79,49.88a1.89,1.89,0,0,0,1.82-3.13,26.68,26.68,0,0,0-11-7.73c-1.54-.6-2.94,1.45-2.11,2.75a15.44,15.44,0,0,0,9.77,6.92,1.89,1.89,0,0,0,2.11-2.75A40,40,0,0,0,69.32,34.46c-1.73-1.31-3.71,1.47-2.27,2.95a45.12,45.12,0,0,0,11.16,8.4A1.89,1.89,0,0,0,81,44.69c.62-2-.77-3.36-2.17-4.56a6.19,6.19,0,0,1-2.26-4.37L73,36.7a76,76,0,0,0,9.69,10.59L82.43,45a33.11,33.11,0,0,0-2.88,9.88c-.23,1.82,2.77,2.6,3.5,1l4.43-10.06-3.43-1.44L82.22,57.93a1.87,1.87,0,0,0,3.61,1c1.44-3.46,3.06-6.83,4.83-10.12l-3.43-1.44c-1.31,3.43-2.7,6.84-4.18,10.2a2,2,0,0,0,.67,2.57,1.9,1.9,0,0,0,2.57-.67A44.33,44.33,0,0,1,91,51.89L87.71,50A56.43,56.43,0,0,0,84,57a1.88,1.88,0,0,0,3.24,1.89l4.21-6-3.24-1.89-4.46,8c-1,1.78,1.54,4,2.94,2.27l5-6.07L88.68,53,85,60.94a1.91,1.91,0,0,0,.49,2.42A1.86,1.86,0,0,0,88,63.21a41,41,0,0,0,4.89-7.41c1.09-2.15-2.12-4-3.24-1.9l-3.36,6.4c-.93,1.78,1.55,4,3,2.27A66.18,66.18,0,0,0,93.89,56L90.65,54.1,87.2,60.75c-.93,1.81,1.47,3.94,3,2.27l5.11-5.73L92.32,55l-4.74,7.38c-1.32,2.06,1.86,3.82,3.24,1.89l4.67-6.5-3.24-1.9L88.8,61.35c-1.3,2.07,1.89,3.87,3.24,1.9l3.28-4.82H92.08a21.1,21.1,0,0,0,8,7.4L102,62.59l-9.58-4.91a1.88,1.88,0,0,0-1.9,3.24l11.25,7.57,1.89-3.24a31.29,31.29,0,0,0-9.15-3.76,1.89,1.89,0,0,0-1.82,3.13,34.32,34.32,0,0,0,7.72,5.73l1.45-3.42-8.73-3.34a1.87,1.87,0,0,0-2.21,1.08A1.91,1.91,0,0,0,91.64,67c2.24,1.65,4.55,3.22,6.91,4.71,2.09,1.32,3.78-1.83,1.89-3.24A26.69,26.69,0,0,0,91.6,64.2a1.89,1.89,0,0,0-1.82,3.13,22.1,22.1,0,0,0,7,5.22c1.79.84,4-1.45,2.27-2.94A11.41,11.41,0,0,0,94,67a1.89,1.89,0,0,0-1.83,3.13,18.47,18.47,0,0,0,8.41,5.22,1.91,1.91,0,0,0,2.3-1.31,23,23,0,0,1,4-7.7l-3-2.27-5,7.65c-1.18,1.82,1.44,3.72,3,2.27l5.34-5.14-3-2.27a27.13,27.13,0,0,1-3.64,5.81c-1.52,1.83,1,4.47,2.65,2.65L108,69.74l-3-2.27-2.84,5.85a1.89,1.89,0,0,0,3,2.28l5.57-4.54-2.94-2.28-2.5,5.85A1.9,1.9,0,0,0,105.8,77a1.86,1.86,0,0,0,2.46-.14l3.21-3.45-2.94-2.27-1.9,3.92c-.88,1.82,1.4,3.92,2.94,2.28l3.85-4.13-2.65-2.65a62.69,62.69,0,0,0-4.6,6.63c-1.07,1.8,1.5,3.89,2.94,2.28L112,76.28l-3.13-1.82-1.92,5c-.67,1.72,2,3.23,3.13,1.82a16.59,16.59,0,0,0,3.24-6L111,76.59a9.28,9.28,0,0,1,4.78,4.77L119,79.47a21.08,21.08,0,0,0-4.52-6l-2.65,2.65,5.63,4.91,2.28-2.94a40.05,40.05,0,0,0-7.62-2.45c-1.63-.33-3.44,1.89-1.82,3.14l4.92,3.81,2.27-2.94a31.57,31.57,0,0,0-8.3-3.76c-1.69-.49-3.33,1.92-1.82,3.14A54.1,54.1,0,0,0,114.57,84L116,80.55,111.8,79c-1.88-.69-3,1.85-1.83,3.13a16.8,16.8,0,0,0,7.32,4.69c2.3.74,3.29-2.88,1-3.62a13,13,0,0,1-5.66-3.72l-1.83,3.13L115,84.17c2,.73,3.26-2.4,1.44-3.43a46.18,46.18,0,0,1-6.41-4.33l-1.82,3.14a27.69,27.69,0,0,1,7.4,3.38c1.75,1.13,4-1.63,2.27-3L113,76.17l-1.83,3.13a35.06,35.06,0,0,1,6.72,2.07,1.92,1.92,0,0,0,2.42-.48,1.87,1.87,0,0,0-.14-2.47l-5.64-4.91c-1.8-1.58-4.44,1-2.65,2.65a18,18,0,0,1,3.93,5.2c1.1,2.17,4.25.27,3.24-1.89A13,13,0,0,0,112,73a1.9,1.9,0,0,0-2.31,1.31,11.92,11.92,0,0,1-2.27,4.33l3.13,1.82,1.93-5c.67-1.75-1.93-3.17-3.14-1.82l-2.89,3.22,3,2.28a55.91,55.91,0,0,1,4-5.88,1.92,1.92,0,0,0,0-2.65,1.91,1.91,0,0,0-2.65,0l-3.85,4.13,3,2.27,1.89-3.93c.88-1.81-1.4-3.92-2.94-2.27l-3.21,3.45,3,2.27,2.5-5.84a1.89,1.89,0,0,0-3-2.27L102.53,73l3,2.27,2.84-5.86c.87-1.8-1.43-4-2.95-2.27l-4.78,5.29L103.24,75a30.63,30.63,0,0,0,4.23-6.56,1.89,1.89,0,0,0-3-2.28l-5.34,5.14,2.95,2.27,5-7.65c1.14-1.75-1.61-4-2.94-2.27A27.53,27.53,0,0,0,99.23,73l2.31-1.31a14.78,14.78,0,0,1-6.76-4.25L93,70.61a7.62,7.62,0,0,1,3.46,1.65l2.27-3a19.55,19.55,0,0,1-6.26-4.63L90.6,67.81a24.11,24.11,0,0,1,8,3.92l1.89-3.24q-3.54-2.23-6.91-4.71L92.08,67.2l8.73,3.34c2,.76,3.29-2.42,1.45-3.43a30.57,30.57,0,0,1-7-5.14l-1.82,3.14a28,28,0,0,1,8.25,3.38c2.08,1.27,3.87-1.9,1.89-3.24L92.37,57.68l-1.9,3.24,9.59,4.91c2.14,1.09,4-2.12,1.89-3.24a17.23,17.23,0,0,1-6.63-6.05,1.9,1.9,0,0,0-3.24,0L88.8,61.35,92,63.25l3.45-5.47c1.31-2.08-1.86-3.82-3.24-1.9l-4.67,6.51,3.24,1.89,4.74-7.37c1.13-1.78-1.52-3.88-3-2.28L87.5,60.37l2.94,2.28L93.89,56a1.88,1.88,0,0,0-3.24-1.89,58.86,58.86,0,0,1-4.07,5.82l2.94,2.27,3.36-6.39-3.24-1.9a36.43,36.43,0,0,1-4.3,6.66l2.94,2.27,3.64-7.9a1.91,1.91,0,0,0-.49-2.42,1.85,1.85,0,0,0-2.46.15l-5,6.07L87,61l4.47-8c1.19-2.14-1.87-3.84-3.24-1.89L84,57l3.24,1.89a55.81,55.81,0,0,1,3.74-7A1.88,1.88,0,1,0,87.71,50a44.25,44.25,0,0,0-4.66,7.57l3.24,1.9Q88.71,54,90.85,48.36c.76-2-2.43-3.29-3.43-1.44-1.92,3.58-3.64,7.26-5.2,11l3.61,1,1.84-13.59a1.92,1.92,0,0,0-1.08-2.21,1.86,1.86,0,0,0-2.35.77L79.81,54l3.49.94a26.87,26.87,0,0,1,2.37-8,1.93,1.93,0,0,0-.29-2.27,71.25,71.25,0,0,1-9.11-9.83c-1-1.32-3.63-1.12-3.49.95a10.06,10.06,0,0,0,1.58,5A9.64,9.64,0,0,0,76,42.66c.27.24.56.45.83.68s.35.32.51.49.15.2,0-.14l2.75-1.12a42,42,0,0,1-10.4-7.81L67.43,37.7a35.35,35.35,0,0,1,9,10.13l2.11-2.75A11.75,11.75,0,0,1,71,39.88l-2.11,2.76a23,23,0,0,1,9.29,6.76L80,46.26a21.48,21.48,0,0,1-12.75-7.85L65,41.35A61.23,61.23,0,0,1,80,55.66l2.12-2.76a19.75,19.75,0,0,1-10.4-7l-2.57,2.56a29.65,29.65,0,0,1,6.67,4.37l2.27-2.94A41.39,41.39,0,0,1,65.88,39.68l-1.83,3.13a19,19,0,0,1,7.43,3.67l2.27-2.95a55.59,55.59,0,0,1-9.54-7.77l-1.82,3.13A34.08,34.08,0,0,1,75.82,44c1.79,1.17,3.78-1.47,2.27-2.94q-7.83-7.63-15.4-15.52L60,28.21a28,28,0,0,1,6.56,7.22l2.57-2.57-6.42-4.71-1.89,3.24a20.71,20.71,0,0,1,5.68,6.29l2.12-2.75a21.53,21.53,0,0,1-8-5.5L58,32.08a43.56,43.56,0,0,1,5,6.52L65.63,36,59,32c-2.09-1.27-3.86,1.88-1.9,3.24a25.39,25.39,0,0,1,7,7.19l2.57-2.56A27.59,27.59,0,0,1,57,32.44c-1.55-1.85-4.19.81-2.65,2.65Z" transform="translate(-18.92 -22.19)"/><path class="cls-1" d="M98.73,23l-22,30.93-11,15.46-5.36,7.53-2.75,3.86A19.32,19.32,0,0,0,55,84.55a2.38,2.38,0,0,0,1.13,3c1.34.73,2.87,1.23,4.27,1.83a10.53,10.53,0,0,0,3.81,1.27c1.48,0,2.58-1,3.69-1.81A126.83,126.83,0,0,0,81,77.07,286,286,0,0,0,104.26,50.5c3.6-4.67,8.15-9.78,9.47-15.71a5,5,0,0,0-.83-4.47A10.32,10.32,0,0,0,109.62,28L100,22.83c-2.12-1.15-4,2.09-1.89,3.23l8.79,4.74c.82.44,2.91,1.12,3.3,2.09s-.6,2.81-1,3.66a39.29,39.29,0,0,1-4.53,7.27Q101.9,47.54,99,51.15A262.11,262.11,0,0,1,74.08,78.66c-2.48,2.34-5,4.61-7.72,6.71-.49.39-1.53,1.48-2.14,1.57s-1.26-.48-1.71-.67l-2.62-1.12L59,84.78l-.87-.37c-.36-.2-.31-.12.15.22l.26,1,0-.31-.25,1c1.24-2.08,2.82-4,4.22-6l4.21-5.9,8.54-12,17-23.8L102,24.91c1.4-2-1.85-3.85-3.24-1.9Z" transform="translate(-18.92 -22.19)"/><path class="cls-1" d="M61.2,86.7c2.45-5.34,6.8-9.48,10.46-14a162.67,162.67,0,0,0,11-15.3c1.29-2.05-2-3.93-3.24-1.9a151.87,151.87,0,0,1-11,15.27c-3.7,4.48-8,8.67-10.46,14a1.93,1.93,0,0,0,.67,2.56,1.89,1.89,0,0,0,2.57-.67Z" transform="translate(-18.92 -22.19)"/><path class="cls-1" d="M63.72,88.62c6.68-10.05,16.13-17.86,23-27.77,1.38-2-1.87-3.87-3.24-1.9-6.87,9.92-16.31,17.72-23,27.78-1.34,2,1.91,3.9,3.24,1.89Z" transform="translate(-18.92 -22.19)"/><path class="cls-1" d="M89.71,48.47c1.29-1.54,2.59-3.09,3.74-4.75a41.52,41.52,0,0,0,2.93-5.26,33.87,33.87,0,0,1,6.48-9.12,1.87,1.87,0,0,0-2.65-2.65A35.9,35.9,0,0,0,93.45,36a54.24,54.24,0,0,1-2.76,5.15,47.42,47.42,0,0,1-3.63,4.7,1.94,1.94,0,0,0,0,2.66,1.9,1.9,0,0,0,2.65,0Z" transform="translate(-18.92 -22.19)"/><path class="cls-1" d="M92.22,49.87c6.61-5,13.33-10.32,16.51-18.24a1.89,1.89,0,0,0-1.31-2.31,1.92,1.92,0,0,0-2.3,1.31c-2.77,6.88-9.07,11.67-14.79,16a1.93,1.93,0,0,0-.67,2.57,1.88,1.88,0,0,0,2.56.67Z" transform="translate(-18.92 -22.19)"/><path class="cls-1" d="M97.19,53.81a96.21,96.21,0,0,1,7-11.13A47,47,0,0,1,108.49,38a13.14,13.14,0,0,0,3.64-5.23c.76-2.3-2.86-3.29-3.61-1-.58,1.76-2.1,3-3.38,4.26A45.65,45.65,0,0,0,100.86,41,101.74,101.74,0,0,0,94,51.92c-1.2,2.1,2,4,3.24,1.89Z" transform="translate(-18.92 -22.19)"/><path class="cls-1" d="M84.15,87.35a24.77,24.77,0,0,1-3.66-.25c-8.1-1.23-18.25-9.17-20.89-13.72-2.76-4.78-3.4-15.85-3.17-19.25.24-3.65,6.22-17.16,10.28-19.87l.56-.38c3.32-2.22,7.44-5,13.11-5.3,1.2-.44,5.19-1.82,8.11-1.78,3.35,0,9.47,1.86,14,3.64A28.6,28.6,0,0,1,115.59,41.6c2.71,4.52,2.65,15.13,2.3,23.87-.31,7.62-13.23,16.93-13.36,17C101.47,84.69,91.75,87.35,84.15,87.35ZM88.38,30.8a25,25,0,0,0-6.88,1.63l-.31.11-.32,0c-4.72.19-8.25,2.55-11.37,4.64l-.57.39c-2.71,1.81-8.32,14-8.51,16.8-.23,3.4.54,13.34,2.64,17,2.22,3.82,11.36,10.76,18,11.77,6.94,1,18.42-2,21.12-3.9,4.62-3.3,11.53-10,11.68-13.93.47-11.67-.11-19-1.72-21.65a24.8,24.8,0,0,0-11.09-9.5c-4.93-1.92-10.25-3.33-12.63-3.36Z" transform="translate(-18.92 -22.19)"/><path class="cls-1" d="M179.17,437c-2.73,0-5.47-.2-8-.39-1.38-.1-2.71-.19-4-.25-8.6-.42-21.58-7.64-25.25-14.06-3.33-5.84-5.55-18-6.13-22.13-.76-5.54,8.14-18.51,26.23-27.47l.21-.11.24-.05c.65-.14,16-3.53,21.41-3.57H184c6.32,0,15.24,6.31,19.52,13.82,4.89,8.56,7.06,16.13,7.06,24.56,0,8.27-7,15.53-12.66,21.36-1.07,1.11-2.11,2.18-3,3.2C191.07,436.06,185.14,437,179.17,437Zm-15.59-60.6c-17.67,8.81-24.17,20.65-23.82,23.22.64,4.65,2.87,15.83,5.65,20.7s14.12,11.67,22,12c1.29.06,2.66.16,4.08.26,7.61.56,16.25,1.19,20.45-3.41.95-1.05,2-2.15,3.12-3.29,5.14-5.31,11.53-11.91,11.53-18.57,0-7.69-2-14.66-6.53-22.58C196.16,378,188.38,373,184,373h-.05C179.3,373,165.56,376,163.58,376.41Z" transform="translate(-18.92 -22.19)"/><path class="cls-1" d="M94.64,414.08c1.71,1.64,3.49,3.21,5.34,4.69,1,.82,2,1.61,3.1,2.38,1.3,1,2.67,2.17,4.41,1.67a2.5,2.5,0,1,0-1.33-4.82l1.31.15-.14-.09c-.1-.08-.22-.15-.32-.22l-.63-.44-1.32-1-.61-.46-.13-.1c.26.2-.08-.06-.12-.1-.43-.33-.86-.67-1.28-1-1.64-1.33-3.22-2.74-4.74-4.21a2.5,2.5,0,1,0-3.54,3.54Z" transform="translate(-18.92 -22.19)"/><path class="cls-1" d="M103.23,410.37c-2.19,1.08-3.46,3.21-4.9,5.07l.39-.5A15.67,15.67,0,0,1,96,417.67l.5-.39c-.28.21-.56.42-.85.61a2.7,2.7,0,0,0-1.15,1.5,2.58,2.58,0,0,0,.25,1.92,2.54,2.54,0,0,0,3.42.9,18,18,0,0,0,3.33-2.82c.91-1,1.66-2.12,2.48-3.19l-.39.5a10.17,10.17,0,0,1,1.72-1.81l-.5.39a5.85,5.85,0,0,1,1-.6,2.51,2.51,0,0,0,.9-3.42,2.56,2.56,0,0,0-3.42-.89Z" transform="translate(-18.92 -22.19)"/><path class="cls-1" d="M157.18,219l-11.41,9.37a2,2,0,0,0,.41,3.14L168,245.09l10.79,6.75,5.29,3.3c1.59,1,3.47,2.65,5.44,2.69s3.17-1.36,4-3c.9-1.86,1.78-3.73,2.68-5.6a35.42,35.42,0,0,0,2.61-5.63c.57-2.11-.89-3.39-2.45-4.48-5.66-4-12-6.71-18.32-9.48-7.07-3.11-14.3-6.29-20.29-11.28-2-1.64-4.81,1.18-2.83,2.83,6,5,13,8.35,20.17,11.49,3.54,1.56,7.08,3.09,10.54,4.82q2.53,1.26,5,2.68c.81.48,1.61,1,2.4,1.49s1.87,1,2.18,1.71l-.27-1c.07.88-.94,2.24-1.32,3L191.82,249l-1.71,3.59c-.1.19-.41,1.13-.63,1.23.12-.05-.5-.3-.66-.4-4.57-2.72-9-5.65-13.54-8.47L148.2,228l.4,3.14,11.4-9.37c2-1.64-.85-4.45-2.82-2.83Z" transform="translate(-18.92 -22.19)"/><path class="cls-1" d="M183.29,219.29c-13.48,7.69-23.74,19.56-33.68,31.22a2.12,2.12,0,0,0-.32,2.43,8,8,0,0,0,4.54,3.91c1.93.78,4.56,1.64,6.61,1.06s3.24-2.66,4.3-4.42a49.47,49.47,0,0,1,3.91-5.62c5.81-7.27,13-13.21,19.43-19.94,1.49-1.57,4.25-3.86,2.53-6.21a3.54,3.54,0,0,0-2.23-1.25c-.4-.08-.8-.12-1.2-.19a3,3,0,0,0-.46-.11c-.06,0-.21-.35.16.21-1.44-2.12-4.9-.12-3.45,2a4.64,4.64,0,0,0,3.53,1.88,4.4,4.4,0,0,0,.79.15c.34,0,.19.51-.23-.19l-.16-.63c0-.64-.07-.79-.29-.46-.34.12-.73.8-1,1.06q-.57.62-1.14,1.2c-2.76,2.9-5.67,5.65-8.55,8.43C170.67,239.36,165.05,245.1,161,252c-.36.61-.8,1.61-1.47,2s-1.89-.13-2.62-.32c-1.69-.45-3.38-1-4.13-2.73l-.31,2.42c9.71-11.4,19.69-23.08,32.87-30.59,2.23-1.28.22-4.73-2-3.46Z" transform="translate(-18.92 -22.19)"/><path class="cls-1" d="M64.06,199.42a89,89,0,0,1,16-12,2.5,2.5,0,0,0-2.53-4.32,97.16,97.16,0,0,0-17,12.77,2.5,2.5,0,0,0,3.54,3.54Z" transform="translate(-18.92 -22.19)"/><path class="cls-1" d="M75.8,197.31q-1.68-1.5-3.23-3.15c-.5-.54-1-1.09-1.46-1.66-.24-.28-.48-.57-.71-.86l-.38-.48c-.28-.36.33.45-.14-.18a50.42,50.42,0,0,1-4.85-7.9,2.52,2.52,0,0,0-3.42-.9,2.56,2.56,0,0,0-.9,3.42,50.16,50.16,0,0,0,11.56,15.25,2.5,2.5,0,0,0,3.53-3.54Z" transform="translate(-18.92 -22.19)"/><path class="cls-1" d="M97.94,260.6a12.89,12.89,0,0,0-11.16,9.73,12.75,12.75,0,0,0,5.35,14,15.48,15.48,0,0,0,15.19,1.15,10.19,10.19,0,0,0,5.83-7.32c.55-3.21-.2-6.41-1.16-9.48-1-3.37-2.29-6.91-5.23-9.11a7.92,7.92,0,0,0-9.78-.09A2.52,2.52,0,0,0,97,263a2.56,2.56,0,0,0,3.53,0,2.5,2.5,0,0,1,1.53-.2,4.17,4.17,0,0,1,2.28,1.21c1.49,1.51,2.12,3.68,2.75,5.65a19.16,19.16,0,0,1,1.28,6.8,5.29,5.29,0,0,1-3.08,4.44c-5.86,3.13-14.9-1.1-13.9-8.3-.06.44.1-.45.1-.42a7.19,7.19,0,0,1,.2-.8,8.42,8.42,0,0,1,.45-1.21A9.49,9.49,0,0,1,93.58,268a6.85,6.85,0,0,1,4.36-2.37,2.57,2.57,0,0,0,2.5-2.5,2.52,2.52,0,0,0-2.5-2.5Z" transform="translate(-18.92 -22.19)"/><path class="cls-1" d="M46.92,125.09a257.76,257.76,0,0,0-.8,31.07,1.25,1.25,0,0,0,2.5,0c.51-4.51,1-9,1.54-13.53a39,39,0,0,1,2.23-9.6c1.15-2.88,3-5.64,6-7,.46-.2.56-.32.89,0a3.6,3.6,0,0,1,.57,1.1,7.71,7.71,0,0,1,.52,2.59,8,8,0,0,1-1.31,4.7c-2.27,3.39-7.12,4-10.45,1.92-1.37-.86-2.62,1.3-1.26,2.16a10.41,10.41,0,0,0,11.89-.64,10.29,10.29,0,0,0,3-11.54c-.83-2.14-2.2-3.7-4.61-2.66a12.4,12.4,0,0,0-4.67,3.57c-2.61,3.2-3.85,7.27-4.59,11.26-1.08,5.81-1.5,11.77-2.16,17.63h2.5a257.76,257.76,0,0,1,.8-31.07c.14-1.6-2.36-1.59-2.5,0Z" transform="translate(-18.92 -22.19)"/><path class="cls-1" d="M59.91,147.51l.25,11.38,2.45-.33c-1.91-5,4.14-11.32,9.26-9l-.45-1.71c-3,5.73,3.6,13,9.52,9.87a8.35,8.35,0,0,0,4.15-7.35,7.23,7.23,0,0,0-4.9-6.64A8.65,8.65,0,0,0,70.88,146a1.27,1.27,0,0,0,.56,2.09,17.75,17.75,0,0,0,20-5.61c4.55-5.69,6.2-13.05,10.57-18.86l-2.29-1a294.49,294.49,0,0,1-7.6,30.59c-.41,1.33,1.65,2.25,2.29,1,1.46-3,3-6.11,5.56-8.28,2.3-1.93,5.74-2.84,8.43-1.2l-.57-1.41a13.27,13.27,0,0,1-12,8.17,1.25,1.25,0,0,0-.33,2.45c6.65,2.77,14.34,1.38,20.32-2.37,6.5-4.09,10.65-10.88,12.66-18.18a49.64,49.64,0,0,0,1.67-13.23c0-1.15-1.82-1.82-2.33-.63a48.66,48.66,0,0,0-3.46,25.92,9.9,9.9,0,0,0,1.61,4.72,5.25,5.25,0,0,0,4.77,1.88,20.47,20.47,0,0,0,10.14-3.92,21.36,21.36,0,0,0,4.06-3.77,22,22,0,0,0,1.53-2.06c.43-.66,1.17-1.57,1-2.41-.63-2.67-4.22-3.16-6.35-2.48a7.09,7.09,0,0,0-5,5.35c-.44,2.92,1.53,5.66,4,7.07a11.46,11.46,0,0,0,10.31.43c4-1.75,7-5.15,9.78-8.42l-2.14-.89.27,6.35a1.26,1.26,0,0,0,2.33.63,32.19,32.19,0,0,1,13.51-11.12l-1.88-1.08a35.42,35.42,0,0,1-2.08,13c-.45,1.25,1.23,2,2.09,1.22A74.93,74.93,0,0,1,187.75,139l-1.88-1.08c-.43,6.47,5.63,11.26,11.55,12.13,7.78,1.14,14.86-3.85,20.8-8.18,1.29-.94,0-3.11-1.26-2.16-5.23,3.81-11.38,8.42-18.21,8-5.08-.32-10.75-4.2-10.38-9.78a1.26,1.26,0,0,0-1.88-1.08,77.4,77.4,0,0,0-16,11.3l2.09,1.21a37.23,37.23,0,0,0,2.17-13.64,1.27,1.27,0,0,0-1.88-1.08,34.6,34.6,0,0,0-14.41,12l2.33.63-.27-6.35c0-1-1.39-1.75-2.13-.88-4.06,4.78-10.65,11.87-17.44,7.36-2.16-1.43-3.33-4.25-1.29-6.3,1.4-1.4,4.36-2.49,5.53-.28v-1.26a19.49,19.49,0,0,1-7.91,7.88,19,19,0,0,1-5.31,1.89c-2.15.42-3.94.23-4.66-2.07a25,25,0,0,1-.85-6.21,46.22,46.22,0,0,1,.13-6.76A45.56,45.56,0,0,1,130,120.76l-2.33-.63c0,7.18-1.31,14.55-5,20.8a24.13,24.13,0,0,1-15.77,11.56,18.23,18.23,0,0,1-10.7-1L95.82,154a15.85,15.85,0,0,0,14.45-10,1.26,1.26,0,0,0-.58-1.41c-3.2-1.95-7.31-1.34-10.32.72-3.39,2.32-5.32,6.07-7.09,9.65l2.28,1a295.3,295.3,0,0,0,7.6-30.6,1.25,1.25,0,0,0-2.28-1c-4,5.35-5.68,12-9.52,17.47a15.44,15.44,0,0,1-18.26,5.85l.55,2.09a6.21,6.21,0,0,1,7.26-1.4,4.84,4.84,0,0,1,2.28,6.3c-.89,2.32-3.33,4.14-5.83,3.09s-4.07-4.16-2.78-6.59a1.26,1.26,0,0,0-.45-1.71c-6.9-3.15-15.71,4.49-12.93,11.8.47,1.25,2.49,1.18,2.46-.33l-.25-11.38a1.25,1.25,0,0,0-2.5,0Z" transform="translate(-18.92 -22.19)"/><path class="cls-1" d="M111.2,173.83c-2.12-.63-4.53-1.29-6.72-.53a5.41,5.41,0,0,0-3.53,3.78c-.41,1.91.69,3.5,2.16,4.59,1.81,1.33,3.73,2.47,5.46,3.91a46,46,0,0,1,5,4.81c.44.5,1.47,1.52,1.35,2.28s-2.1.06-2.67-.1a16.3,16.3,0,0,1-6-2.9,1.45,1.45,0,0,1-.31-2.26,4,4,0,0,1,3.13-1.09,92.5,92.5,0,0,1,15.4,1.36c1.21.18,2.41.38,3.61.59a9.82,9.82,0,0,0,3.32.31,2.72,2.72,0,0,0,2.23-3.57c-.59-1.47-2.69-1.89-4.1-1.77a6.43,6.43,0,0,0-4.32,2.24c-2.48,2.93-1.29,7.2,1.63,9.34,3.63,2.68,8.73,1,11.18-2.45a7,7,0,0,0,1-6.41,5.05,5.05,0,0,0-4.79-3.24c-1.6.06-1.61,2.56,0,2.5a2.76,2.76,0,0,1,2.66,3.3,5.87,5.87,0,0,1-2.86,4.23c-2.9,1.78-7.2.68-7.68-3.08a3.41,3.41,0,0,1,1.9-3.5,3.66,3.66,0,0,1,1.86-.45,3.58,3.58,0,0,1,1,.21c.15,0,.24.24.24.06s-.15.09-.28.1c-2,.13-4.18-.56-6.17-.85q-3.3-.5-6.62-.83t-6.56-.5a13.37,13.37,0,0,0-5.53.39c-3.11,1.2-4.31,5-1.58,7.25a17.74,17.74,0,0,0,4.83,2.69,14,14,0,0,0,5.27,1.28,2.73,2.73,0,0,0,2.75-2.57,5.78,5.78,0,0,0-1.66-3.83,45.33,45.33,0,0,0-9.8-8.58c-1.46-1-3.65-2.31-1.83-4.12s4.47-.77,6.45-.17a1.26,1.26,0,0,0,.66-2.42Z" transform="translate(-18.92 -22.19)"/><path class="cls-1" d="M143.87,170.78v13.28c0,2.88-.37,6.58,1.77,8.89s5.47,1.64,7.45-.42c2.62-2.73,2-6.74,1.37-10.11l-2.28,1,4.67,9a1.25,1.25,0,0,0,2.15,0,24.55,24.55,0,0,0,4.18-10.35l-1.54.87c4.16,1.53,9.25,3,13.51,1,1.78-.84,4.17-2.78,3.5-5-.63-2.09-3.46-2.44-5.26-2a7.5,7.5,0,0,0-5,9.94c1.65,3.69,6.18,5.45,10,4.53,5.07-1.22,7.85-6.87,7.26-11.75a1.25,1.25,0,0,0-2.5,0,14.42,14.42,0,0,0,2.4,8.88,1.25,1.25,0,0,0,2.28-1,7.79,7.79,0,0,1,10.54-9.43c1.46.63,2.74-1.53,1.26-2.16a10.28,10.28,0,0,0-14.21,12.25l2.29-1a12.14,12.14,0,0,1-2.06-7.62h-2.5a8.92,8.92,0,0,1-3.18,8.29,6.51,6.51,0,0,1-7.78-.18,4.67,4.67,0,0,1-.14-7.28,3.83,3.83,0,0,1,3.75-1.08c1.63.6-2.15,2.56-2.82,2.74-3.49.93-7.36-.38-10.62-1.58a1.26,1.26,0,0,0-1.54.88,23,23,0,0,1-3.92,9.75H159l-4.66-9c-.69-1.33-2.54-.36-2.29,1,.49,2.51,1.21,6-1,7.92a2.81,2.81,0,0,1-3,.74,3.37,3.37,0,0,1-1.56-2.56c-.54-2.67-.2-5.62-.2-8.32V170.78a1.25,1.25,0,0,0-2.5,0Z" transform="translate(-18.92 -22.19)"/><path class="cls-1" d="M138.65,380.85l53.48,40.31,15.16,11.43a2.5,2.5,0,0,0,3.42-.89,2.56,2.56,0,0,0-.89-3.42L156.34,388l-15.17-11.44a2.52,2.52,0,0,0-3.42.9,2.56,2.56,0,0,0,.9,3.42Z" transform="translate(-18.92 -22.19)"/><path class="cls-1" d="M140.37,378.79l3-4.44-2.74.71c9.67,4.92,18.39,11.43,26.8,18.23,9,7.29,17.9,14.72,26.85,22.09l15.53,12.79v-2.83l-1.72,2.13a2.06,2.06,0,0,0,0,2.83,2,2,0,0,0,2.83,0l1.72-2.13a2,2,0,0,0,0-2.83l-27.81-22.9c-8.71-7.18-17.31-14.56-26.49-21.15a120.94,120.94,0,0,0-15.69-9.68,2.06,2.06,0,0,0-2.74.72l-3,4.44c-1.44,2.14,2,4.15,3.45,2Z" transform="translate(-18.92 -22.19)"/><path class="cls-1" d="M211.52,308.07c-3.59.92-7.58,2.5-9.7,5.73-2.49,3.79-.38,8.4,2.85,11a11.73,11.73,0,0,0,12.22,1.78,10.39,10.39,0,0,0,6-10.13c-.53-4.71-4.93-8.83-9.8-8.35a2.07,2.07,0,0,0-2,2,2,2,0,0,0,2,2,5.47,5.47,0,0,1,5.7,4c.67,2.49-.83,5.24-3.1,6.59a7.38,7.38,0,0,1-7.82-.5A7.65,7.65,0,0,1,205,319a3.64,3.64,0,0,1-.32-1.72,4.82,4.82,0,0,1,.13-.62,2.7,2.7,0,0,1,.32-.67,7.7,7.7,0,0,1,3.08-2.49,20.61,20.61,0,0,1,4.34-1.58c2.49-.64,1.44-4.5-1.06-3.85Z" transform="translate(-18.92 -22.19)"/><path class="cls-1" d="M184.68,287a3.66,3.66,0,0,0-3.34,1.85,5,5,0,0,0-.55,3.56,4.32,4.32,0,0,0,2.37,2.93,6.57,6.57,0,0,0,4.35.39,7.62,7.62,0,0,0,3.8-2,4.51,4.51,0,0,0,1.11-4.13,6.15,6.15,0,0,0-5.77-4.47c-3.24,0-5.83,2.35-7.93,4.54a2,2,0,0,0,1.42,3.42l6.55.16a2,2,0,0,0,2-2,2,2,0,0,0-2-2l-6.55-.16,1.41,3.41a28.06,28.06,0,0,1,2.08-2l.18-.15.11-.08c.19-.14.39-.27.59-.4s.35-.21.54-.31l.28-.14c.4-.2-.31.09.09,0l.66-.2a1.69,1.69,0,0,1,.38-.07c-.06,0-.45,0-.07,0a2.25,2.25,0,0,0,.52,0c-.07.09-.44-.09-.15,0l.38.09.12,0c.16.06.16.06,0,0l-.11-.05.17.09.51.3c.27.16-.12-.07-.09-.08a1.3,1.3,0,0,1,.2.17c.05.05.43.47.44.46s-.26-.39-.06-.05a1.48,1.48,0,0,0,.13.21c.14.24,0,.23,0-.09a1.13,1.13,0,0,0,.08.22,1.55,1.55,0,0,0,.06.23c.09.31,0-.14,0-.19a.92.92,0,0,0,0,.23c0,.38.12-.42,0-.07a1.72,1.72,0,0,0-.08.28c0,.25.16-.37.05-.14s-.23.33,0,0a1.51,1.51,0,0,1-.21.23l-.23.21c.28-.26.12-.09,0,0s-.44.27-.67.38a1.05,1.05,0,0,1-.26.13c.4-.06.15-.06,0,0s-.43.14-.64.2l-.29.06c-.36.09,0,0,.09,0a3.52,3.52,0,0,0-.72,0,1.52,1.52,0,0,1-.29,0c.08.1.41.08,0,0l-.33-.09c-.26-.06,0,.07.09.05a1.05,1.05,0,0,1-.49-.28c0,.11.25.24.08.05s0-.05,0,.09a.58.58,0,0,0-.11-.18c-.2-.3.13.43,0,.09l-.07-.25c-.1-.34.05.06,0,.17a1.88,1.88,0,0,0,0-.53c0,.44-.07.38,0,.16a2.33,2.33,0,0,0,.07-.25c.09-.36-.2.34-.06.14a2.15,2.15,0,0,0,.14-.26c.08-.21-.31.31-.14.17l.21-.21c.14-.18-.38.28-.18.15s-.32.1-.14,0,.31,0,0,0,.05,0,.14,0a2,2,0,0,0,2-2,2.05,2.05,0,0,0-2-2Z" transform="translate(-18.92 -22.19)"/><path class="cls-1" d="M22.52,198a5.4,5.4,0,0,0-3.36,3.63,6.84,6.84,0,0,0,.44,4.75,5.09,5.09,0,0,0,3.56,2.83,5.44,5.44,0,0,0,5-1.71A6.57,6.57,0,0,0,30,202.8a5.13,5.13,0,0,0-.84-2.58,3.88,3.88,0,0,0-3.08-1.66,4.11,4.11,0,0,0-4.38,3,3.45,3.45,0,0,0,3.45,4.11,4.38,4.38,0,0,0,4.47-3.23c.52-2.67-1.06-5.06-3.09-6.65a2.19,2.19,0,0,0-1.41-.59,2,2,0,0,0-1.42.59,2,2,0,0,0,0,2.83,8.47,8.47,0,0,1,.79.67l.35.35.16.18s.32.39.15.17.13.19.17.25.18.32.27.48c.18.33-.07-.27,0,.08a2.43,2.43,0,0,0,.14.59s0-.38,0-.16a1.62,1.62,0,0,0,0,.22c0,.37.08-.3,0,.08,0,0-.06.18-.06.18s.22-.37.11-.26,0,.09-.07.12c-.2.21.17-.17.14-.17a2.55,2.55,0,0,0-.24.23c-.1.13.2-.17.22-.17s-.09.07-.12.08l-.26.14c-.2.12.44-.13.21-.09l-.19,0-.28.07c-.17.05.29,0,.29,0s-.14,0-.19,0a1.23,1.23,0,0,0-.27,0s.45.11.31,0l-.22,0c-.28-.05.41.21.17.07s.34.33.14.12.24.45.09.11c-.08-.18.13.34.11.29a1,1,0,0,1,0-.17s0,.56,0,.23c0-.08,0-.26,0,.06-.06.48.15-.32,0,.12-.11.29,0,.14,0,.07s.27-.35-.13.17l.1-.11c.18-.13-.37.21-.16.13s.19-.11.28-.16-.42.12-.18.08l.16-.05.16,0c.17-.07-.24,0-.26,0a2.26,2.26,0,0,0,.45,0c.33,0-.41-.11-.09,0a1,1,0,0,0,.32.09c-.23,0-.38-.17-.18-.06s.16.15,0,0-.27-.18-.29-.31c0,0,.09.13.12.18s.24.48.1.15,0,0,0,.12,0,.26.09.37,0-.46,0-.26a.74.74,0,0,0,0,.21c0,.13,0,.26,0,.39,0,.34.1-.44,0-.1a4.51,4.51,0,0,0-.22.75s.19-.39.09-.21a1,1,0,0,1-.07.15,3.9,3.9,0,0,1-.19.35c-.06.1-.13.19-.19.28s.14-.17.14-.17a1.81,1.81,0,0,0-.18.21,1.81,1.81,0,0,1-.24.24c-.06.07-.36.28-.09.1l-.15.1c-.11.07-.24.12-.34.19s.23-.09.23-.09a.8.8,0,0,0-.2.07l-.31.08c-.33.1.44,0,.1,0a1.62,1.62,0,0,0-.44,0s.44.09.25,0l-.17,0c-.11,0-.22-.08-.34-.1s.24.09.25.1-.1,0-.13-.06l-.33-.21c-.15-.08.21.16.22.17s-.09-.08-.11-.1l-.24-.24c-.22-.22.24.37.08.09a2.82,2.82,0,0,1-.18-.29c0-.07-.24-.5-.1-.15s0,0,0-.14-.07-.26-.1-.39-.09-.51,0-.13,0-.08,0-.19v-.36c0-.13,0-.27,0-.4s-.1.47,0,.28,0-.13,0-.19.06-.26.1-.39a.78.78,0,0,1,.05-.14c.06-.26-.05.18-.1.2a2.54,2.54,0,0,0,.36-.63c.07-.16-.16.21-.17.21s.12-.13.16-.18a1.1,1.1,0,0,0,.25-.23s-.36.23-.21.17.14-.1.21-.13.57-.24,0,0a2.05,2.05,0,0,0,1.4-2.46A2,2,0,0,0,22.52,198Z" transform="translate(-18.92 -22.19)"/><path class="cls-1" d="M188.48,83.45c0,.08-.3.41-.08.14s0,0-.11.11a5.13,5.13,0,0,1-.53.51l-.29.24c-.19.16.35-.25.15-.11l-.14.1c-.22.16-.44.32-.67.47a13.48,13.48,0,0,0-2.58,2,4.55,4.55,0,0,0-1.12,4,4.76,4.76,0,0,0,3.38,3.32,6.55,6.55,0,0,0,5-.8,14.91,14.91,0,0,0,1.78-1.19A9.5,9.5,0,0,0,195,90.76a4.49,4.49,0,0,0,.72-5.08,4.76,4.76,0,0,0-3.36-2.23,5.44,5.44,0,0,0-4.9,1.67,10.35,10.35,0,0,0-2.29,4.48,2,2,0,0,0,1.4,2.46,5,5,0,0,0,4.26-.64,5.13,5.13,0,0,0,2.32-4,2,2,0,0,0-2-2,2.05,2.05,0,0,0-2,2c0,.39.11-.32,0-.12a1.29,1.29,0,0,0-.08.28c-.08.37.22-.37,0,0a1.32,1.32,0,0,1-.12.2l-.09.15.13-.18a.9.9,0,0,0-.15.18,1.51,1.51,0,0,0-.26.24c0-.11.39-.25.07-.07l-.25.15c-.07,0-.39.19-.08,0s0,0-.1,0l-.28.07c-.19.07.5,0,.13,0a1.41,1.41,0,0,0-.29,0c-.23,0,.46.11.13,0l-.34-.09,1.4,2.46c.07-.27.14-.53.23-.78s.08-.26.13-.39.26-.5,0,0c.11-.2.19-.42.3-.62s.34-.77.49-.8l-.15.2c.06-.07.11-.14.17-.2l.18-.19a2.32,2.32,0,0,1,.29-.27l-.2.15.22-.15.35-.2c.33-.2-.46.13-.08,0l.21-.06c.52-.13-.34,0,0,0h.33c.23,0,.37.14-.09,0,.16.06.35.08.53.13s.18.2-.08,0a1.84,1.84,0,0,0,.28.15c.23.15.14.24-.07-.07a1.18,1.18,0,0,0,.25.25c.18.15-.26-.44-.1-.12s0,.23,0-.12a1.38,1.38,0,0,0,.08.29l0-.32a1.93,1.93,0,0,1,0,.24c0,.42.1-.31,0-.07a1.93,1.93,0,0,1-.09.31l.1-.24-.13.24-.15.22c.18-.22.2-.25.06-.08s-.32.34-.49.5-.21.19-.32.28-.41.4,0,0a8.37,8.37,0,0,1-1.53,1,5.34,5.34,0,0,1-.82.43c.49-.19-.26.06-.38.09s-.56.21-.07,0a1.33,1.33,0,0,1-.4,0,1.56,1.56,0,0,0-.37,0c.32,0,.37,0,.16,0l-.19,0a2.52,2.52,0,0,0-.29-.1l.24.11-.22-.11s-.27-.21-.31-.2l.21.17-.17-.17c-.06,0-.33-.26-.08-.07s0,0,0-.09c-.22-.36.15.43,0,0s0,.51,0,0c0-.09,0-.19,0-.28,0,.62-.08.41,0,.27a1.29,1.29,0,0,0,.08-.26c0,.25-.24.45-.06.16l.13-.23c.16-.31-.33.39-.09.12s.25-.28.39-.41l.22-.2c.13-.1.53-.36,0,0,.18-.11.34-.25.51-.37.39-.27.79-.53,1.18-.81a9.15,9.15,0,0,0,2.6-2.55,2,2,0,0,0-.72-2.73,2,2,0,0,0-2.73.71Z" transform="translate(-18.92 -22.19)"/><path class="cls-1" d="M75.19,459.11a7.51,7.51,0,0,0,.53,8.12,8.41,8.41,0,0,0,8.18,3.51,11.85,11.85,0,0,0,8-5.23,5,5,0,0,0,.49-5.41,11.26,11.26,0,0,0-3.87-3.48A17.81,17.81,0,0,0,79,454c-3.11,0-8,.91-7.59,5.07.34,3.14,3.41,5.38,6.09,6.57,2.48,1.09,5.74,2,8.19.31,3.38-2.27,2.6-6.86-.4-9.05-3.44-2.51-8-.56-10.56,2.21-.92,1-.69,3.11.89,3.34l3.23.47a2.08,2.08,0,0,0,2.46-1.4A2,2,0,0,0,80,459l-3.23-.47.88,3.35a7.47,7.47,0,0,1,2.5-1.86,3.73,3.73,0,0,1,2.45-.2,2.23,2.23,0,0,1,.86.61,2.33,2.33,0,0,1,.51.81c0,.09.1.57.08.31,0,.09,0,.56,0,.31-.06.33-.11.39-.41.66.23-.2-.08.05-.19.11-.3.17.14,0-.2.07-.11,0-.54.11-.21.07a4.39,4.39,0,0,1-.81,0c-.07,0-.57-.05-.3,0-.22,0-.43-.08-.65-.13a11.47,11.47,0,0,1-1.51-.47,8.35,8.35,0,0,1-4.11-3.06,1.52,1.52,0,0,1-.19-.44s0,.29,0,0,0,.06,0,0,.16-.29,0-.06a1,1,0,0,1,.4-.27,8.58,8.58,0,0,1,3-.47,13.82,13.82,0,0,1,6.33,1.31A13,13,0,0,1,87.87,461c.59.49,1.39,1,1,1.77a7.77,7.77,0,0,1-4.44,3.74,5.48,5.48,0,0,1-3,.18,4,4,0,0,1-2.09-1.33,1.89,1.89,0,0,1-.29-.36c-.14-.21-.26-.43-.38-.65a1.32,1.32,0,0,1-.22-.5,5.56,5.56,0,0,1-.19-.7s-.06-.34,0-.15,0-.21,0-.25a5.77,5.77,0,0,1,0-.72c0,.29.11-.35.15-.46-.07.21.21-.38.26-.47,1.33-2.21-2.13-4.22-3.46-2Z" transform="translate(-18.92 -22.19)"/><path class="cls-1" d="M60.66,317.25c-3.56,3.49-7.3,7.64-7.06,13,.23,5.07,4.2,8.35,9.15,8.5,9,.29,16.61-10,11.22-18-2.69-4-7.73-6.42-12.49-5-1.28.39-1.12,2.65.34,2.46,5.68-.75,11.1,2.38,16.78,1.44,4.08-.68,8.32-3.45,8.34-8a1.26,1.26,0,0,0-2.46-.33,73,73,0,0,0-2.18,18.74c0,1.37,2.16,1.75,2.46.33.54-2.54,2.5-5,5.22-5.32a4.79,4.79,0,0,1,5.18,4.28c.12,2.77-2.9,4.39-5.3,4.56a15.18,15.18,0,0,1-5.22-.74c-.54-.16-3.88-.86-3.72-1.79.27-1.57-2.14-2.25-2.41-.66-.62,3.63,4.23,4.61,6.84,5.22,3.42.8,7.14.73,10-1.63,5.27-4.43.51-12.63-5.84-11.67a9,9,0,0,0-7.12,7.09l2.45.33A70.66,70.66,0,0,1,86.89,312l-2.45-.33c0,3.84-4.55,5.59-7.8,5.69-5,.14-9.74-2.31-14.82-1.64l.33,2.45c6.81-2.08,13.38,5.68,10.32,12.06a10.93,10.93,0,0,1-8,5.92c-3.87.59-7.93-1.35-8.34-5.55-.46-4.77,3.17-8.5,6.31-11.57,1.15-1.12-.62-2.89-1.77-1.77Z" transform="translate(-18.92 -22.19)"/><path class="cls-1" d="M110.77,322.87a12.2,12.2,0,0,0-8.37,3.05,1.25,1.25,0,0,0,.25,2,28,28,0,0,1,8.06,7.24l.75-1.83-8,1.65,1.54,1.53c.49-2,2.71-2.68,4.53-2.81,2.39-.16,4.75.37,7.14,0a6.07,6.07,0,0,0,4.58-3.11,4.88,4.88,0,0,0,.06-4.89,4.21,4.21,0,0,0-5.31-1.18,5.58,5.58,0,0,0-3,3.85c-.89,4,1.91,7.4,5.82,8,5.25.81,9.36-3.06,11.64-7.39l-2.29-.3,1.37,8.52,2.41-.66c-1.28-5.21,2.93-11,8.31-11.27,1.6-.09,1.61-2.59,0-2.5a12,12,0,0,0-10.72,14.43c.4,1.59,2.66.89,2.41-.66L130.62,328a1.26,1.26,0,0,0-2.28-.3c-1.54,2.93-4,6-7.59,6.25-2.84.19-5.88-1.62-5.33-4.8a3,3,0,0,1,2.17-2.58c1.65-.34,2.15,1.05,1.66,2.36-1.3,3.52-6.22,2.23-9.07,2.25-3.11,0-6.76,1.33-7.59,4.67a1.27,1.27,0,0,0,1.54,1.54l8-1.65a1.26,1.26,0,0,0,.75-1.84,30.93,30.93,0,0,0-9-8.13l.25,2a9.65,9.65,0,0,1,6.61-2.32,1.25,1.25,0,0,0,0-2.5Z" transform="translate(-18.92 -22.19)"/><path class="cls-1" d="M142.87,324.55a28.69,28.69,0,0,0,4.78,11.15c.48.68,1.74.94,2.16,0a37.43,37.43,0,0,0,3.12-11.85l-2.46.33a7.09,7.09,0,0,0,13.86.25,1.26,1.26,0,0,0-.57-1.41c-5.59-2.56-11.62,4.1-8.85,9.49s10.32,5.63,14.09,1.42a11.84,11.84,0,0,0,2.69-9.81c-.22-1.42-2.45-1-2.45.33a36.65,36.65,0,0,0,2.31,12.86,1.26,1.26,0,0,0,2.42-.66c-.54-2.36-1-5.34.55-7.45,1.11-1.54,3.31-2.37,5-1.2,1.31.94,2.56-1.23,1.26-2.16-2.47-1.75-5.88-.78-7.8,1.34-2.47,2.75-2.15,6.79-1.39,10.13l2.42-.66a34.63,34.63,0,0,1-2.23-12.2l-2.46.33c.81,5.23-3.48,11.4-9.2,9.11-2.15-.85-4-3-3.25-5.42.65-2.22,3.32-4.37,5.67-3.29l-.58-1.41a4.6,4.6,0,0,1-9-.25c-.33-1.47-2.34-1-2.46.33a33.57,33.57,0,0,1-2.78,10.59h2.16a26.89,26.89,0,0,1-4.53-10.55c-.3-1.58-2.71-.91-2.41.66Z" transform="translate(-18.92 -22.19)"/><path class="cls-1" d="M195.27,364.83,155,418.31l-11.44,15.16a2.52,2.52,0,0,0,.9,3.42,2.56,2.56,0,0,0,3.42-.89l40.31-53.48,11.43-15.17a2.51,2.51,0,0,0-.89-3.42,2.56,2.56,0,0,0-3.42.9Z" transform="translate(-18.92 -22.19)"/><path class="cls-1" d="M197.33,366.55l4.44,3-.71-2.74c-4.92,9.67-11.43,18.39-18.23,26.8-7.29,9-14.72,17.9-22.09,26.85L148,436h2.83l-2.13-1.72a2.06,2.06,0,0,0-2.83,0,2,2,0,0,0,0,2.83l2.13,1.72a2,2,0,0,0,2.83,0L173.68,411c7.18-8.71,14.56-17.31,21.15-26.49a120.94,120.94,0,0,0,9.68-15.69,2.07,2.07,0,0,0-.72-2.74l-4.44-3c-2.14-1.44-4.15,2-2,3.45Z" transform="translate(-18.92 -22.19)"/><path class="cls-1" d="M140.16,377c17,14.59,36,26.59,53.45,40.56,4.88,3.9,9.64,8,14.18,12.26,2.34,2.21,5.89-1.32,3.54-3.54C195,410.87,176.08,398.61,158.2,385.1c-4.94-3.73-9.8-7.59-14.5-11.62a2.56,2.56,0,0,0-3.54,0,2.53,2.53,0,0,0,0,3.53Z" transform="translate(-18.92 -22.19)"/></svg>