<svg id="Layer_1" data-name="Layer 1" xmlns="http://www.w3.org/2000/svg" viewBox="0 0 380.02 319.25"><defs><style>.cls-1{fill:#fff;}</style></defs><path class="cls-1" d="M98.68,50.1c-12.45-2.26-27.77-2.46-36.37,8.51-3.44,4.39-5.49,10-4.73,15.63.79,5.8,5.07,10.68,8.86,14.86,7.94,8.76,18.31,15.22,30.19,16.73,6.4.81,13.21.28,19.08-2.54,12.26-5.9,19.36-18.84,20.69-32a2.48,2.48,0,0,0-2.17-2.46,2.55,2.55,0,0,0-2.74,1.8c-3.25,8.81,2.86,18.41,11.08,21.73,8.72,3.54,18.09-1.56,22.25-9.47a21.13,21.13,0,0,0,2-14.93c-.56-2.27-3.37-2.22-4.57-.6-5.74,7.79-1.36,18.9,6.1,23.77,8.76,5.72,19.6.9,24.44-7.56A21.3,21.3,0,0,0,195,67.35c-.89-3.14-5.38-1.79-4.83,1.33L194,90l4.57-1.93c-3.61-7.34,5.56-14.43,11.69-16.15C215,70.6,220,70.6,224.85,70.22A44.15,44.15,0,0,0,239.52,67l-3.67-1.49c1.11,4.65-.45,9.34-1.21,13.92-.64,3.86-.77,7.59.73,11.28,1.29,3.21,3.46,6.19,6.76,7.52a9.07,9.07,0,0,0,9.39-1.79c4.64-4.3,4-11.79,5-17.51A13.66,13.66,0,0,1,267,67.81c4.82-1.31,10.74-.46,13.76,3.92s1.66,10.81-1.57,14.84-8.56,6-12.92,3.05c-3.63-2.49-5.09-7.86-4.51-12a9.59,9.59,0,0,1,3.34-6.41c2.39-1.87,6.07-2,9.14-1.58,8.32,1.16,16.53,5.58,24.78,1.6l-2.53-4.32c-7.93,5.39-4.43,16.32,2.18,21.18,8.27,6.08,18.46.13,22.2-8.19a25.65,25.65,0,0,0,1.58-16.47c-.69-2.9-4.68-2-4.91.66-.8,9,1.25,25.17,13.49,24.77,5.78-.19,9.64-4.56,11.95-9.47a64.72,64.72,0,0,0,3.08-8.2c.82-2.57,1.48-5.06,3.14-7.25a15.08,15.08,0,0,1,6.54-5.09c2.2-.79,3.93-.64,5.08,1.49l2.82-3.67c-10.21-3.77-22.09,2.07-26,12-.52,1.34.6,2.65,1.75,3.08l25.4,9.47a68.73,68.73,0,0,1,10.15,4.22c2.25,1.28,4.76,3.09,5.35,5.77.7,3.13-1.55,6.19-3.66,8.27a18.75,18.75,0,0,1-6.13,3.91,40,40,0,0,1-15.23,2.44,72.79,72.79,0,0,1-7.53-.44c-1.59-.17-2.29-.27-4.08-.57-3.15-.53-4.5,4.29-1.33,4.82,9.58,1.61,20.3,2.21,29.5-1.42,6.32-2.5,12.84-7.76,13.55-15,.76-7.82-7.21-12.22-13.38-14.63-10.36-4-20.86-7.78-31.28-11.67L342.4,70c3-7.57,12.42-11.27,19.87-8.52,2.17.8,3.78-1.89,2.83-3.67-2.79-5.19-8.69-5.18-13.35-2.63-5.19,2.83-8.33,7.6-10.06,13.11-1.47,4.69-2.85,10.36-6.59,13.82a6.36,6.36,0,0,1-9.82-1.41c-3-4.74-3.26-11.17-2.78-16.62l-4.91.67c1.56,6.54-.25,15.2-6.19,19.11-2.54,1.67-5.57,2.4-8.38,1.06a11.46,11.46,0,0,1-5.6-6.31c-1-2.67-1-5.67,1.56-7.39a2.5,2.5,0,0,0-2.53-4.32c-3.29,1.59-7.08,1.07-10.52.3-4-.89-7.89-2.14-12-2.61-6.91-.81-13.46,1.75-16.16,8.46a18.77,18.77,0,0,0,1.59,16.45,13.58,13.58,0,0,0,15.92,5.84c12.64-4.45,17.34-24.56,4-31.2-5.87-2.92-13.07-2.25-18.7,1a18.42,18.42,0,0,0-6.85,6.67c-1.71,3-2.15,6.37-2.55,9.73-.37,3.08-.49,6.45-1.74,9.33-1,2.24-3.28,3.87-5.73,2.73-2.81-1.3-4.26-5-4.56-7.93-.49-4.64,1.39-9.42,1.9-14a21.3,21.3,0,0,0-.4-7.38c-.4-1.72-2.26-2.11-3.67-1.5-10,4.42-21.74,1.19-31.74,5.77-8.18,3.75-15.55,13-11,22.14,1.33,2.7,5,.68,4.56-1.93Q196.88,78,195,67.35l-4.83,1.33a16.62,16.62,0,0,1-8.23,18.73c-6.58,3.36-13.69-.68-16.35-7.09a10.4,10.4,0,0,1,1-10.44l-4.57-.6a16.42,16.42,0,0,1-6.89,17.2c-6,3.82-13.36,1.72-17.21-4.06a11.4,11.4,0,0,1-1.55-10.48l-4.91-.66c-1,10.08-6.11,20.11-14.74,25.73a26.06,26.06,0,0,1-15.23,4.15c-10-.07-19.63-4.41-27-11.1A56.52,56.52,0,0,1,64.11,77.94,13.12,13.12,0,0,1,64,65.35C70,52.81,85.45,52.76,97.35,54.92c3.15.57,4.5-4.25,1.33-4.82Z" transform="translate(-26.86 -39.16)"/><path class="cls-1" d="M242.17,44.16l5.08.39A2.5,2.5,0,0,0,249,40.29a2.8,2.8,0,0,0-1.77-.74l-5.08-.39a2.5,2.5,0,0,0-1.77,4.27,2.76,2.76,0,0,0,1.77.73Z" transform="translate(-26.86 -39.16)"/><path class="cls-1" d="M28.43,154.19,31,222.39c.1,2.68,4.38,3.56,4.91.66,1.86-10.22-.54-20.24-2.46-30.25-1.51-8-2.35-15.83.06-23.69C35.37,163,39.36,157,45.92,155.4c3.29-.81,7.5-.29,9.51,2.76,2.17,3.29.72,7.81-1,11-4.51,8.59-13,15.15-21.83,18.9-1.45.62-1.61,2.95-.51,3.93a19.33,19.33,0,0,0,24.63.57l-4.18-2.43a88.09,88.09,0,0,0,2.61,38.16c.77,2.58,5.22,2.25,4.91-.66-1-9.8-1.63-20.65,2.84-29.75,3.56-7.26,10.62-12.27,18.87-12.25,3.93,0,8,1.42,10.4,4.63l2.16-3.76c-8.35,1.12-14.69,7.83-16.42,16-1.8,8.48,1.85,17,9.66,21,7.38,3.79,17,3.5,23.78-1.53,6.55-4.87,8.89-13,7.66-20.88-1.33-8.58-7.24-16.58-15.85-18.83-2.24-.59-4.49,2.54-2.44,4.18,8,6.34,18.74,6.92,28,3.23,10-4,17.14-12.28,21.82-21.77A100.14,100.14,0,0,0,157,150.41l-4.91-.66a704,704,0,0,0-1.48,79.43q.42,11.2,1.21,22.42c.22,3.17,5.09,3.24,5,0a138,138,0,0,1,1.56-25.11c.63-4,1.44-8,2.43-12,.83-3.34,1.53-6.81,3.45-9.73,1-1.49,3.34-4.61,5.5-4.14,2.65.57,2.21,6,2.25,7.93A67.63,67.63,0,0,1,168.46,232c-1.27,3.79-4.87,15.13-10.9,11.93-2.88-1.53-.65-3.68,1.3-4.82,2.77-1.64,5.62-3.12,8.32-4.89a101.29,101.29,0,0,0,28-27.54,99.26,99.26,0,0,0,16.29-40.8c.4-2.62-3.08-4.6-4.57-1.93a82.64,82.64,0,0,0-9.63,52c1.15,7.93,3.26,17.13,10.81,21.38,6.46,3.64,14.64,2.86,21-.47,7.29-3.78,12-11.17,15-18.53,2.36-5.67,7.85-18.39-1.33-21-7.26-2.06-13,4.82-13.57,11.35-.6,6.34,2.67,13.14,8.45,16,8.1,4,17.83,1.51,24.68-3.85,7.73-6,11.83-15.41,15.6-24.19l-4.66-1.26a54.2,54.2,0,0,0,5.84,31.77c1,2,3.92,1.33,4.57-.6a293.27,293.27,0,0,1,16.44-39.36l-4.57-.6A170.78,170.78,0,0,1,301.08,225c.07,2.65,3.22,3.17,4.66,1.26A160.93,160.93,0,0,1,340.85,192l-3.76-2.15a35.54,35.54,0,0,0,10.64,24.31,34.38,34.38,0,0,0,25.84,9.57,35.45,35.45,0,0,0,15.8-4.7c2.78-1.62.27-5.94-2.52-4.32a29.61,29.61,0,0,1-44.76-24.86c0-1.75-2.15-3.32-3.77-2.16a168.65,168.65,0,0,0-36.9,36l4.66,1.27a177.34,177.34,0,0,0-5.65-39.69c-.53-2-3.59-2.54-4.57-.6a301,301,0,0,0-16.95,40.56l4.56-.6a49.6,49.6,0,0,1-5.15-29.24c.3-2.41-3.71-3.49-4.66-1.26-5,11.74-12.17,27.56-27.25,27.58-5.57,0-10.34-3-11.8-8.46-1.1-4.11-.06-10,4.81-11.13,7.2-1.61,1.06,12.16-.06,14.79-2.56,6.06-6.4,12.15-12.31,15.4-4.87,2.67-11.44,3.51-16.44.7-6.11-3.44-7.46-11.47-8.42-17.8a77.19,77.19,0,0,1,9-48.79l-4.56-1.92a96.46,96.46,0,0,1-31.4,57.25,105.46,105.46,0,0,1-18.47,12.73c-3,1.68-6,4.25-5.69,8,.25,3.36,3.2,5.91,6.34,6.64,8.26,1.93,12.59-7.15,15-13.39a71.89,71.89,0,0,0,4.64-27c-.07-3.67,0-8.3-2.73-11.13-2.4-2.47-5.83-2.62-8.77-1-3.3,1.78-5.77,5.24-7.21,8.62-1.92,4.53-2.85,9.68-3.8,14.48a144.39,144.39,0,0,0-2.69,31.8h5a706.55,706.55,0,0,1-1.06-79.44q.48-11.22,1.33-22.41c.21-2.86-4.17-3.33-4.91-.67-4.72,16.94-14.39,37.43-34.76,37.85a20.21,20.21,0,0,1-13.13-4.08L101.88,187c11.43,3,16.82,19.83,8.85,28.8-8.73,9.8-28.66,5-28.26-9.32.18-6.65,4.9-14.08,11.91-15,1.61-.22,3.47-2.06,2.16-3.77-5.92-7.73-16.22-8.6-24.77-5C61.58,187.08,56.44,197.1,55,207.67a82.2,82.2,0,0,0,.12,20L60,227a82.45,82.45,0,0,1-2.61-35.5A2.52,2.52,0,0,0,53.23,189a14.2,14.2,0,0,1-17.55-.58l-.51,3.93a50.64,50.64,0,0,0,22.39-18.59c2.53-3.89,4.41-8.74,3.8-13.46a11.56,11.56,0,0,0-8.58-9.72c-8.26-2.28-16.42,2.71-20.72,9.56s-5.7,15.46-5,23.36c1.06,12.7,6.37,25.35,4,38.2l4.91.67-2.54-68.2c-.12-3.21-5.12-3.23-5,0Z" transform="translate(-26.86 -39.16)"/><path class="cls-1" d="M185.08,285.74a38.72,38.72,0,0,0-33.33,9.52,29.1,29.1,0,0,0-7.33,9.69,6.27,6.27,0,0,0,1,6.8,11.39,11.39,0,0,0,5.94,3c4.88,1.15,9.9.89,14.86.68,6.86-.28,15.77-.34,20.5,5.68,2.59,3.3,2.11,7.53.78,11.26a30.61,30.61,0,0,1-6,9.89,33.89,33.89,0,0,1-19.68,10.93c-2.41.39-7.37.63-6.3-3.18,1-3.5,4.82-5.82,7.9-7.26,7.15-3.35,15.63-3.11,23.34-3.17s15-.44,22.12-3.32c6.41-2.6,12.46-6.93,14.81-13.71a18.11,18.11,0,0,0,.9-5.11c.07-1.48-1.67-3-3.16-2.41a22.74,22.74,0,0,0-13.53,15.26c-1.7,6.67.29,13.66,5.93,17.78a17.57,17.57,0,0,0,17,2c6.38-2.81,9-10.14,7.41-16.66-2-8.24-9-15-15.88-19.45l-.6,4.57c14.84-4,26-17.49,27.42-32.71.26-2.78-4.43-3.45-4.91-.67a86.12,86.12,0,0,0,7.63,52.45,81,81,0,0,0,7.86,12.79c1.09,1.46,3.29,1.76,4.32,0a44.4,44.4,0,0,0,2.79-38.9,2.5,2.5,0,0,0-4.82,1.33,73.41,73.41,0,0,0,20.11,37.7c1.2,1.2,3.91.83,4.18-1.1a185.84,185.84,0,0,0,.9-44.34l-4.91.66a24.17,24.17,0,0,0,4.57,9.57,14.33,14.33,0,0,0,6.45,5c3.46,1.17,7.59,1.11,11.19.91a40.38,40.38,0,0,0,15.83-3.93c4.75-2.39,13.29-9,7.25-14.53-4.38-4-11.3-3.08-15.74.23a18.5,18.5,0,0,0-7.57,14.41c0,5.72,3.54,10.77,8.29,13.7a23.86,23.86,0,0,0,16.18,2.92c14.66-2.33,22.19-17.92,23.2-31.32h-5a84.62,84.62,0,0,0,4.85,31.93,2.53,2.53,0,0,0,2.75,1.79,2.47,2.47,0,0,0,2.16-2.46c-1.28-10.8-2.71-22.83,3.82-32.32a17.42,17.42,0,0,1,11-7.42c4.94-.95,10.09.39,14.84,1.67,5.93,1.6,11.89,3.46,18.09,3.36,3.22-.05,3.23-5.05,0-5-11.42.18-21.9-6.77-33.45-5-11,1.7-18,12.07-19.7,22.42-1.23,7.43-.45,14.87.42,22.28l4.91-.66a80.89,80.89,0,0,1-4.67-30.6,2.5,2.5,0,0,0-5,0c-.74,9.82-5.37,21.11-15,25.24-7.42,3.19-18.12,1.18-21.8-6.61-1.75-3.71-.66-7.95,1.66-11.28a12.61,12.61,0,0,1,4.38-3.9,8.31,8.31,0,0,1,5-1,6.35,6.35,0,0,1,2.79,1.07c.86.66.78,1.13.14,2A17.14,17.14,0,0,1,319,312.4a32.35,32.35,0,0,1-12.38,3.7,45.15,45.15,0,0,1-6.78.19c-.89,0-1.77-.11-2.66-.21-.42-.05.6.09,0,0l-.65-.1-.9-.18-.81-.22-.33-.11c.6.22-.26-.14-.33-.18a11.06,11.06,0,0,1-3-2.58,19,19,0,0,1-4-8.28c-.59-2.71-5.2-2.16-4.91.67a180.45,180.45,0,0,1-.72,43l4.18-1.1a68.76,68.76,0,0,1-18.83-35.5l-4.82,1.33a39.7,39.7,0,0,1-2.29,35.05h4.32A80.91,80.91,0,0,1,248,300.58a77.32,77.32,0,0,1,1.09-14.09l-4.91-.66c-1.21,13-11.2,24.53-23.75,27.89a2.53,2.53,0,0,0-.6,4.57c5.14,3.32,10,7.9,12.58,13.52a12.23,12.23,0,0,1,1.17,7.51,9,9,0,0,1-3.45,5.46c-3.47,2.32-8.21,2.06-11.89.1a10.73,10.73,0,0,1-4.5-4.19,12,12,0,0,1-1.32-7.41,17.45,17.45,0,0,1,10.38-13.46l-3.17-2.41a12.94,12.94,0,0,1-3.2,8,23.39,23.39,0,0,1-7.89,5.62c-6.7,3.11-13.89,3.5-21.14,3.56-8.28.06-17.05-.07-24.84,3.14-3.89,1.61-7.67,4-10.13,7.46-2.58,3.65-3,8.88,1,11.69,3.39,2.38,8.2,1.58,12,.7a38.39,38.39,0,0,0,26.84-23.66c1.62-4.43,2-9.34-.18-13.65A16.72,16.72,0,0,0,184,312.9a30,30,0,0,0-11.49-2.59c-5.1-.16-10.2.5-15.29.21a20.24,20.24,0,0,1-6.63-1.25,3.24,3.24,0,0,1-1.6-1.1c-.39-.77.24-1.72.63-2.38a30.67,30.67,0,0,1,7.56-8.57A34,34,0,0,1,178.32,290a30.16,30.16,0,0,1,5.44.57,2.56,2.56,0,0,0,3.07-1.75,2.51,2.51,0,0,0-1.75-3.07Z" transform="translate(-26.86 -39.16)"/></svg>