<svg id="Layer_1" data-name="Layer 1" xmlns="http://www.w3.org/2000/svg" viewBox="0 0 191.4 401.74"><defs><style>.cls-1{fill:#231f20;}.cls-2{fill:none;stroke:#231f20;stroke-miterlimit:10;}</style></defs><path class="cls-1" d="M85.28,55.54a26.23,26.23,0,0,0-1.88,2.33c-.4.46-1,.78-1,1.46s1.06,1.55,1.6,2a25,25,0,0,0,2.45,1.89C90.46,66,94.52,68.53,98,72c3.25,3.23,6.16,6.71,9.84,9.48s7.68,5,11,8.28a.5.5,0,0,0,.83-.22l1-3.08a7.25,7.25,0,0,0,.64-2.65c-.17-1.44-1.85-3-2.79-4C115.79,77,112.7,74.68,110,72,104.72,67,99.82,61.47,93.81,57.29a38,38,0,0,0-5.15-3,2.07,2.07,0,0,0-1.81-.3c-.67.32-.85,1.14-1.47,1.5a.5.5,0,0,0,.51.87c1-.56.86-1.63,2.27-1.21A13.71,13.71,0,0,1,91,56.65a44.94,44.94,0,0,1,5.1,3.58,114.61,114.61,0,0,1,9,8.36c2.94,2.94,5.9,5.84,9,8.57a39.64,39.64,0,0,1,4.6,4.47,8.54,8.54,0,0,1,1.2,1.61,2.82,2.82,0,0,1-.08,2.24l-1.16,3.78.84-.22c-2.94-2.9-6.45-5.07-9.8-7.45a66.2,66.2,0,0,1-9.46-8.72,56.56,56.56,0,0,0-9.69-8.12A57,57,0,0,1,85,60.93a6.91,6.91,0,0,1-1.08-1c-.55-.71-.33-.8.15-1.34A24.86,24.86,0,0,1,86,56.25c.48-.44-.23-1.14-.71-.71Z" transform="translate(-30.03 -51.49)"/><path class="cls-1" d="M109.8,51.72,95.71,72.52,88.6,83,86.92,85.5c-.32.48-1,1.12-1,1.73,0,.39.21.58.52.78a22.85,22.85,0,0,0,2.45,1.3c.7.35,1.77,1.35,2.58,1.31.62,0,1.22-.82,1.59-1.24C94.31,88,95.48,86.46,96.72,85c4.56-5.33,9.35-10.39,13.61-16,2.39-3.15,5.35-6.51,6.52-10.36.47-1.54.23-2.63-1.19-3.5-1.93-1.18-3.94-2.24-5.91-3.35a.5.5,0,0,0-.5.86l4.52,2.56a7.41,7.41,0,0,1,2,1.25c.8,1-.21,2.86-.66,3.76a52.89,52.89,0,0,1-5.54,8.09c-3.9,5.15-8.25,9.83-12.48,14.69-1.43,1.63-2.83,3.29-4.21,5-.22.28-.44.56-.68.82-.11.11-.62.79-.76.81-.35,0-1.13-.69-1.45-.87-.63-.36-1.3-.67-1.94-1a5,5,0,0,1-1-.49c-.21-.22-.47.31.1-.41,1.22-1.55,2.24-3.32,3.35-5l6.13-9.06,14-20.6c.36-.53-.5-1-.86-.5Z" transform="translate(-30.03 -51.49)"/><path class="cls-2" d="M162.91,374.51c-18.11,9-25.68,21.41-25.13,25.4s2.76,15.93,5.89,21.41,15.2,12.65,23.61,13.05,20.37,2.46,26.09-3.8,15.18-14.27,15.18-23.21-2.64-16.28-6.79-23.57S189.15,370.94,183.91,371,162.91,374.51,162.91,374.51Z" transform="translate(-30.03 -51.49)"/><path class="cls-1" d="M96.06,412.66q2.56,2.47,5.34,4.7c.88.71,1.78,1.4,2.69,2.07l1.49,1.06a1.54,1.54,0,0,0,1.38.4.5.5,0,0,0-.26-1c-.22.06-.54-.25-.7-.36l-.63-.45-1.32-1c-.86-.64-1.71-1.31-2.54-2-1.64-1.34-3.22-2.75-4.75-4.21-.46-.45-1.17.26-.7.7Z" transform="translate(-30.03 -51.49)"/><path class="cls-1" d="M104.24,412.09a10.66,10.66,0,0,0-3.59,3.57,16.18,16.18,0,0,1-4,4c-.53.36,0,1.22.5.86a16.64,16.64,0,0,0,4.09-3.94c1-1.34,2-2.82,3.5-3.58.58-.29.08-1.15-.5-.87Z" transform="translate(-30.03 -51.49)"/><path class="cls-1" d="M158.24,220l-11.41,9.37a.5.5,0,0,0,.1.78l21.8,13.63,10.79,6.74,5.28,3.31c1.34.83,3,2.4,4.69,2.48,1.43.07,2.12-1.14,2.67-2.27q1.35-2.79,2.68-5.6l1.4-2.91a13.55,13.55,0,0,0,1.07-2.36c.33-1.38-.76-2.08-1.76-2.78-5.67-3.95-12-6.71-18.32-9.48-7.21-3.18-14.5-6.44-20.6-11.52-.49-.41-1.2.3-.71.71,9.89,8.23,22.52,11.63,33.63,17.76,1.29.72,2.57,1.47,3.81,2.27.68.43,1.36.88,2,1.35a3.74,3.74,0,0,1,.78.62c.52.75-.14,1.59-.46,2.25l-2.36,4.93L192.05,252a11.14,11.14,0,0,1-1.51,2.88c-1.27,1.36-4.31-1.31-5.44-2L180,249.68l-10.16-6.35-22.42-14,.1.79,11.4-9.37c.5-.41-.21-1.11-.7-.71Z" transform="translate(-30.03 -51.49)"/><path class="cls-1" d="M184,220.59c-13.36,7.62-23.52,19.42-33.37,31a.53.53,0,0,0-.08.61,6.45,6.45,0,0,0,3.64,3.22c1.6.66,4.09,1.6,5.81,1.06s2.56-2.31,3.4-3.72a53,53,0,0,1,4.15-5.93c5.81-7.27,13-13.21,19.43-19.94.83-.87,3.41-2.78,2.41-4.24-.86-1.25-3-.29-3.84-1.5-.36-.53-1.23,0-.87.51a3.46,3.46,0,0,0,2.64,1.18,3.06,3.06,0,0,1,.79.15c.13.08.33,0,.43.19s-.35.9-.45,1a21.37,21.37,0,0,1-2.1,2.26c-2.77,2.9-5.68,5.65-8.56,8.43-5.65,5.45-11.19,11.07-15.21,17.87a6.74,6.74,0,0,1-2,2.51c-1.12.67-2.61.14-3.78-.18-2-.54-4.12-1.38-5-3.42l-.07.61c9.8-11.5,19.88-23.25,33.17-30.83a.5.5,0,0,0-.51-.86Z" transform="translate(-30.03 -51.49)"/><path class="cls-1" d="M62.65,198a93,93,0,0,1,16.41-12.3.5.5,0,0,0-.51-.86A94.22,94.22,0,0,0,61.94,197.3c-.47.44.24,1.14.71.7Z" transform="translate(-30.03 -51.49)"/><path class="cls-1" d="M74.39,198.73A48,48,0,0,1,63.3,184.09c-.29-.58-1.15-.07-.86.5a48.5,48.5,0,0,0,11.24,14.84c.48.43,1.19-.27.71-.7Z" transform="translate(-30.03 -51.49)"/><path class="cls-1" d="M97.94,262.6c-4.55.37-8.07,4-9.24,8.27a10.7,10.7,0,0,0,4.44,11.74,13.49,13.49,0,0,0,13.17,1.14,8.34,8.34,0,0,0,4.91-6.12c.48-2.83-.32-5.73-1.16-8.42s-1.87-6-4.31-7.92a6,6,0,0,0-7.36-.39c-.5.39.21,1.09.71.7,2-1.58,5-.67,6.63,1s2.53,4.22,3.26,6.54a20.74,20.74,0,0,1,1.36,7.33,7.27,7.27,0,0,1-4.07,6.17c-7.11,3.8-18-1.21-16.91-10,.54-4.41,4-8.65,8.57-9,.63-.05.64-1.05,0-1Z" transform="translate(-30.03 -51.49)"/><path class="cls-1" d="M47.67,125.09a257.76,257.76,0,0,0-.8,31.07.5.5,0,0,0,1,0c.51-4.51,1-9,1.54-13.53a39.64,39.64,0,0,1,2.25-9.8c1.23-3.07,3.23-6,6.3-7.41.71-.34,1.43-.48,1.92.27a6.64,6.64,0,0,1,.6,1.19,8.18,8.18,0,0,1,.59,2.88,8.77,8.77,0,0,1-1.42,5.08c-2.48,3.73-7.79,4.52-11.47,2.19-.55-.35-1,.52-.51.86a9.69,9.69,0,0,0,11-.52,9.58,9.58,0,0,0,2.77-10.82c-.66-1.66-1.6-3-3.52-2.2a11.76,11.76,0,0,0-4.51,3.45c-2.52,3.09-3.68,7.08-4.4,10.93-1.07,5.74-1.47,11.63-2.13,17.43h1a257.76,257.76,0,0,1,.8-31.07c.06-.64-.94-.64-1,0Z" transform="translate(-30.03 -51.49)"/><path class="cls-1" d="M60.66,147.51l.25,11.38,1-.13c-2.17-5.72,4.7-12.41,10.36-9.83l-.18-.68c-2.69,5.05,3.24,11.63,8.49,8.84a7.59,7.59,0,0,0,3.78-6.7A6.45,6.45,0,0,0,80,144.47a7.94,7.94,0,0,0-8.58,2,.51.51,0,0,0,.22.84,17,17,0,0,0,19.31-5.42c4.51-5.63,6.12-12.95,10.45-18.71l-.91-.38a295.17,295.17,0,0,1-7.61,30.59c-.16.53.66.9.92.39,1.49-3,3-6.21,5.68-8.43s6.35-3.14,9.34-1.32l-.23-.56a14,14,0,0,1-12.76,8.72.5.5,0,0,0-.13,1c6.48,2.69,13.91,1.36,19.74-2.3,6.34-4,10.36-10.62,12.32-17.73a49,49,0,0,0,1.64-13c0-.46-.73-.73-.93-.25a47.61,47.61,0,0,0-3.38,25.34c.47,3.32,1.76,6.37,5.65,6.05a20,20,0,0,0,9.77-3.81,21.49,21.49,0,0,0,3.9-3.66,18.81,18.81,0,0,0,1.41-1.91c.29-.45,1-1.25.9-1.83-.13-.91-1.39-1.75-2.18-2a5.2,5.2,0,0,0-3.24.06,6.33,6.33,0,0,0-4.48,4.73c-.4,2.62,1.43,5.07,3.6,6.32a10.64,10.64,0,0,0,9.55.43c4-1.7,6.89-5.08,9.63-8.3l-.86-.36.27,6.35a.5.5,0,0,0,.93.26,32.91,32.91,0,0,1,13.78-11.4l-.75-.43a35.63,35.63,0,0,1-2.11,13.18c-.18.5.49.8.84.49a75.53,75.53,0,0,1,15.68-11l-.75-.43c-.41,6.15,5.39,10.6,11,11.41,7.54,1.08,14.48-3.92,20.22-8.11.52-.37,0-1.24-.5-.86-5.34,3.89-11.61,8.53-18.59,8.09-5.47-.34-11.53-4.53-11.13-10.53a.5.5,0,0,0-.75-.43A76.8,76.8,0,0,0,171,148.66l.83.49A36.49,36.49,0,0,0,174,135.7a.51.51,0,0,0-.76-.43A34,34,0,0,0,159.06,147l.94.25-.27-6.35c0-.39-.55-.7-.85-.35-4.32,5.08-11.21,12.18-18.35,7.48-2.58-1.69-3.82-5.08-1.44-7.48,1.74-1.75,5.3-2.8,6.71-.13v-.5a20.22,20.22,0,0,1-8.18,8.14,19.29,19.29,0,0,1-5.49,2,5.74,5.74,0,0,1-3.86-.15,4,4,0,0,1-1.72-2.44,26.14,26.14,0,0,1-.88-6.41,46.18,46.18,0,0,1,3.66-20.67l-.94-.25c0,7.31-1.35,14.82-5.12,21.18a24.9,24.9,0,0,1-16.22,11.91,19,19,0,0,1-11.1-1l-.13,1a15.07,15.07,0,0,0,13.72-9.46.49.49,0,0,0-.23-.56c-3-1.82-6.76-1.19-9.56.72-3.27,2.23-5.12,5.93-6.83,9.38l.92.39a297.88,297.88,0,0,0,7.6-30.6.5.5,0,0,0-.91-.38c-4,5.34-5.68,12-9.52,17.47a16.21,16.21,0,0,1-19.11,6.19l.22.84a7,7,0,0,1,8.16-1.52,5.58,5.58,0,0,1,2.63,7.15c-1,2.71-3.84,4.77-6.75,3.61s-4.75-4.84-3.23-7.69a.49.49,0,0,0-.18-.68c-6.37-2.91-14.34,4.32-11.83,11,.19.49,1,.46,1-.14l-.25-11.38a.5.5,0,0,0-1,0Z" transform="translate(-30.03 -51.49)"/><path class="cls-1" d="M111,174.56c-2-.6-4.26-1.25-6.32-.53a4.58,4.58,0,0,0-3,3.25,3.82,3.82,0,0,0,1.82,3.74c1.85,1.39,3.83,2.55,5.61,4a45.11,45.11,0,0,1,5,4.81c.64.73,1.6,1.76,1.57,2.81,0,1.78-2.55.92-3.62.62a17.16,17.16,0,0,1-6.29-3,2.21,2.21,0,0,1-.38-3.38,4.79,4.79,0,0,1,3.66-1.31A93.94,93.94,0,0,1,124.6,187c1.21.18,2.41.38,3.61.59a8.62,8.62,0,0,0,3,.29,2,2,0,0,0,1.63-2.54c-.46-1.18-2.33-1.41-3.41-1.31a5.71,5.71,0,0,0-3.79,2c-2.14,2.57-1,6.29,1.48,8.17,3.27,2.44,7.93,1,10.15-2.19a6.27,6.27,0,0,0,1-5.74,4.31,4.31,0,0,0-4.11-2.78c-.64,0-.65,1,0,1,2.27-.09,3.63,2.06,3.4,4.15a6.66,6.66,0,0,1-3.22,4.78c-3.36,2.06-8.25.63-8.8-3.63a4.18,4.18,0,0,1,2.26-4.25,4.4,4.4,0,0,1,2.24-.55,2.74,2.74,0,0,1,1.35.31c.72.5.61,1.13-.16,1.45-1,.41-2.25-.06-3.26-.23s-2.24-.38-3.37-.54c-2.13-.32-4.27-.58-6.42-.8s-4.37-.39-6.56-.5a12.66,12.66,0,0,0-5.34.37c-2.61,1-3.52,4.12-1.24,6a17.39,17.39,0,0,0,4.5,2.5,13.32,13.32,0,0,0,5.07,1.25c3.13-.13,1.79-3.67.56-5.12a44.24,44.24,0,0,0-9.65-8.46,9,9,0,0,1-2.41-1.88,2.51,2.51,0,0,1,.43-3.42c1.93-1.93,4.9-1,7.18-.37a.5.5,0,0,0,.26-1Z" transform="translate(-30.03 -51.49)"/><path class="cls-1" d="M144.62,170.78v13.28c0,2.65-.41,6.21,1.55,8.36,1.8,2,4.69,1.34,6.39-.42,2.41-2.51,1.77-6.3,1.18-9.38l-.91.38,4.66,9a.51.51,0,0,0,.87,0,24.09,24.09,0,0,0,4.1-10.17l-.62.35c4,1.45,8.87,2.95,12.93,1.08,1.4-.65,3.77-2.32,3.16-4.18-.55-1.65-2.92-1.83-4.34-1.5a6.76,6.76,0,0,0-4.59,8.85c1.46,3.39,5.67,5,9.14,4.18,4.77-1.15,7.27-6.47,6.71-11a.5.5,0,0,0-1,0,13.7,13.7,0,0,0,2.3,8.5.5.5,0,0,0,.91-.38,8.53,8.53,0,0,1,11.64-10.27c.58.25,1.09-.62.5-.87a9.53,9.53,0,0,0-13.1,11.4l.91-.38a12.84,12.84,0,0,1-2.16-8h-1a9.62,9.62,0,0,1-3.48,8.88,7.25,7.25,0,0,1-8.76-.24,5.42,5.42,0,0,1-.14-8.34,4.57,4.57,0,0,1,4.48-1.27c3.11,1.14-1.57,3.85-2.82,4.18-3.63,1-7.62-.33-11-1.57a.49.49,0,0,0-.62.35,23.25,23.25,0,0,1-4,9.93h.87l-4.67-9c-.27-.53-1-.15-.91.38.54,2.82,1.22,6.45-1.17,8.65a3.53,3.53,0,0,1-3.86.86,4.06,4.06,0,0,1-1.9-3c-.55-2.74-.23-5.74-.23-8.52V170.78a.5.5,0,0,0-1,0Z" transform="translate(-30.03 -51.49)"/><path class="cls-1" d="M139.66,379.12l53.48,40.32,15.16,11.43c.52.38,1-.48.51-.87l-53.48-40.31-15.17-11.43c-.51-.39-1,.48-.5.86Z" transform="translate(-30.03 -51.49)"/><path class="cls-1" d="M139.08,378l3-4.44-.68.18c9.79,5,18.59,11.58,27.1,18.46,9,7.29,17.91,14.72,26.85,22.09l15.53,12.79v-.71l-1.72,2.13c-.4.5.31,1.21.71.71l1.72-2.13a.51.51,0,0,0,0-.71l-27.81-22.9c-8.61-7.1-17.11-14.4-26.18-20.91a121.12,121.12,0,0,0-15.7-9.69.52.52,0,0,0-.68.18l-3,4.45c-.36.53.5,1,.86.5Z" transform="translate(-30.03 -51.49)"/><path class="cls-1" d="M211.92,309.51c-3.18.82-6.91,2.17-8.8,5-2.13,3.24-.11,7,2.61,9.16a10.17,10.17,0,0,0,10.4,1.54,8.92,8.92,0,0,0,5.24-8.83,7.94,7.94,0,0,0-8.3-6.85c-.63.07-.64,1.07,0,1a6.93,6.93,0,0,1,7.14,5.12c.89,3.23-1,6.63-3.78,8.28a8.9,8.9,0,0,1-9.34-.51c-2.6-1.69-5.09-5.15-3.22-8.22,1.67-2.76,5.37-4,8.31-4.76a.5.5,0,0,0-.26-1Z" transform="translate(-30.03 -51.49)"/><path class="cls-1" d="M184.68,288.48c-1.86-.16-2.75,2-2.44,3.51.43,2.19,3,2.69,4.87,2.27s4.39-2,3.87-4.33a4.66,4.66,0,0,0-4.33-3.37c-2.81,0-5.06,2.22-6.87,4.1a.51.51,0,0,0,.36.86l6.55.16c.64,0,.64-1,0-1l-6.55-.16.35.85a12.69,12.69,0,0,1,4.53-3.5,3.79,3.79,0,0,1,4.42,1.14A2.52,2.52,0,0,1,190,291a3,3,0,0,1-1.78,1.84c-1.35.68-3.69,1.11-4.74-.33-.71-1-.3-3.12,1.17-3,.64.06.64-1,0-1Z" transform="translate(-30.03 -51.49)"/><path class="cls-1" d="M191,90.8a2.61,2.61,0,0,0-1.89,1.72,1.32,1.32,0,0,0,.24,1.28,1.66,1.66,0,0,0,1.54.27c.9-.16,2.29-.84,1.88-2a2.67,2.67,0,0,0-1-1.16,1.11,1.11,0,0,0-.83-.19,1,1,0,0,0-.67.45A1.67,1.67,0,0,0,190,92a.84.84,0,0,0,.32.92,1.58,1.58,0,0,0,.86.16,2,2,0,0,0,.85-.28.5.5,0,1,0-.5-.86l-.11.06s-.15.06,0,0l-.21.06c-.13,0,.1,0,0,0a.56.56,0,0,1-.13,0h-.09c.12,0,0,0-.08,0s-.12-.07,0,0l.07.09a.19.19,0,0,1,.08.15s0-.22,0-.27h0l0-.14s.06-.15,0,0l.06-.1c.06-.1-.07.06,0,0l0,0c-.05,0-.06,0,0,0l0,0,0,0s.16,0,0,0c.12,0-.09,0,0,0s0,0,0,0l.09,0c.05,0,.05,0,0,0l.06,0a3.64,3.64,0,0,1,.34.34l.06.06c-.07-.08,0,0,0,0a1.05,1.05,0,0,1,.07.11c-.05-.08,0,0,0,0s0,.14,0,0,0,.15,0,0a.31.31,0,0,0,0,.08c0-.1,0,0,0,0s0,0,0,0-.1.09,0,0l-.05,0-.16.09-.2.11-.12.06c.09,0,0,0,0,0a2.85,2.85,0,0,1-.5.14l-.13,0c.11,0,0,0-.05,0h-.36c.09,0,0,0,0,0h0c-.05,0-.05,0,0,0l0,0c-.07-.07,0,0,0,0l0,0s0,0,0,0l0-.09c0-.1,0,.08,0,0s0-.18,0-.19v.07s0,0,0-.07l0-.1a.29.29,0,0,1,0-.1v0l0,0a2.53,2.53,0,0,1,.13-.22l.05-.06,0,0c.06-.06.11-.12.17-.17l.09-.08c-.1.08,0,0,.06,0l.2-.12.1-.05c.1,0-.08,0,0,0l.26-.08a.5.5,0,0,0-.26-1Z" transform="translate(-30.03 -51.49)"/><path class="cls-1" d="M61.19,317.79c-3.41,3.34-7.07,7.31-6.84,12.44.21,4.66,3.87,7.61,8.4,7.75,8.4.27,15.64-9.35,10.57-16.88-2.5-3.72-7.22-6-11.64-4.63-.51.16-.45,1.06.14,1,5.62-.74,11,2.38,16.58,1.46,3.74-.61,7.77-3.06,7.79-7.26a.5.5,0,0,0-1-.13,72.38,72.38,0,0,0-2.16,18.54c0,.55.86.7,1,.13.61-2.87,2.9-5.55,6-5.87a5.53,5.53,0,0,1,5.93,5c.1,3.2-3.23,5.11-6,5.31a15.85,15.85,0,0,1-5.42-.77c-1.14-.33-4.54-.95-4.24-2.71.1-.63-.86-.9-1-.26-.51,3,4.28,3.82,6.32,4.3,3.15.74,6.62.73,9.23-1.44,4.73-3.94.48-11.28-5.21-10.4a8.25,8.25,0,0,0-6.5,6.55l1,.13a71.73,71.73,0,0,1,2.12-18.28l-1-.13c0,4.29-4.87,6.33-8.55,6.44-5,.14-9.75-2.31-14.82-1.64l.13,1a9.43,9.43,0,0,1,9.57,3,9.05,9.05,0,0,1,1.59,10.19,11.65,11.65,0,0,1-8.45,6.26c-4.34.71-8.88-1.57-9.29-6.27-.43-5,3.23-8.86,6.53-12.1.46-.45-.25-1.16-.71-.7Z" transform="translate(-30.03 -51.49)"/><path class="cls-1" d="M110.77,323.62a11.45,11.45,0,0,0-7.84,2.83.51.51,0,0,0,.1.79,28.87,28.87,0,0,1,8.33,7.51l.3-.74-8,1.65.62.62c1.25-5,8.66-2.79,12.19-3.37a5.36,5.36,0,0,0,4.13-2.77,4.1,4.1,0,0,0,.07-4.13,3.48,3.48,0,0,0-4.29-.91,4.8,4.8,0,0,0-2.61,3.4c-.81,3.6,1.79,6.57,5.29,7.08,4.9.72,8.68-3,10.79-7l-.91-.12,1.37,8.52,1-.26a10.2,10.2,0,0,1,9-12.22c.64,0,.64-1,0-1a11.2,11.2,0,0,0-10,13.48c.15.64,1.06.36,1-.26l-1.37-8.52A.5.5,0,0,0,129,328c-1.68,3.19-4.39,6.36-8.24,6.62-3.34.21-6.74-2.1-6-5.75a3.75,3.75,0,0,1,2.69-3.11c2.23-.51,3.23,1.44,2.59,3.29-1.42,4-6.54,2.78-9.8,2.8-2.78,0-6.12,1.11-6.87,4.12a.51.51,0,0,0,.62.61l8-1.64a.51.51,0,0,0,.3-.74,30.11,30.11,0,0,0-8.69-7.87l.1.79a10.4,10.4,0,0,1,7.14-2.54.5.5,0,0,0,0-1Z" transform="translate(-30.03 -51.49)"/><path class="cls-1" d="M143.6,324.35a27.92,27.92,0,0,0,4.7,11c.19.27.69.37.86,0a36,36,0,0,0,3-11.47l-1,.13a6.34,6.34,0,0,0,12.41.25.5.5,0,0,0-.23-.56c-4.92-2.26-10.21,3.76-7.83,8.46,2.48,4.87,9.47,5.12,12.92,1.27a11.07,11.07,0,0,0,2.5-9.08c-.09-.57-1-.42-1,.13a36,36,0,0,0,2.29,12.66.5.5,0,0,0,1-.27c-.59-2.6-1-5.79.69-8.09,1.32-1.82,4-2.79,5.92-1.4.53.38,1-.49.51-.86-2.19-1.56-5.19-.68-6.88,1.22-2.27,2.55-1.9,6.34-1.2,9.4l1-.27A35.19,35.19,0,0,1,171,324.45l-1,.13c.89,5.78-3.8,12.46-10.13,10-2.53-1-4.62-3.54-3.78-6.35s4-5,6.78-3.74l-.23-.56a5.35,5.35,0,0,1-10.49-.25c-.13-.59-.93-.4-1,.13a34.37,34.37,0,0,1-2.88,11h.86a27.24,27.24,0,0,1-4.6-10.72c-.12-.63-1.08-.37-1,.26Z" transform="translate(-30.03 -51.49)"/><path class="cls-1" d="M197,365.84l-40.31,53.48-11.43,15.16c-.39.52.48,1,.87.51l40.31-53.48,11.43-15.17c.39-.51-.48-1-.87-.5Z" transform="translate(-30.03 -51.49)"/><path class="cls-1" d="M198.09,365.26l4.44,3-.18-.68c-5,9.78-11.58,18.59-18.46,27.1-7.29,9-14.72,17.9-22.09,26.85L149,437h.71l-2.13-1.72c-.5-.4-1.21.3-.71.71l2.13,1.72a.52.52,0,0,0,.71,0l22.9-27.81c7.1-8.61,14.4-17.11,20.91-26.18a120,120,0,0,0,9.68-15.7.51.51,0,0,0-.17-.68l-4.45-3c-.53-.35-1,.51-.5.87Z" transform="translate(-30.03 -51.49)"/><path class="cls-1" d="M141.58,375.6c17,14.58,36,26.58,53.44,40.55,4.88,3.91,9.64,8,14.19,12.27.47.44,1.17-.27.71-.71-16.23-15.31-35-27.48-52.73-40.88-5.08-3.84-10.07-7.79-14.9-11.94-.49-.41-1.2.29-.71.71Z" transform="translate(-30.03 -51.49)"/><path class="cls-1" d="M47.08,237.25a2.17,2.17,0,0,0-1.37,2.35A2.34,2.34,0,0,0,46.3,241a1.85,1.85,0,0,0,1.47.57A2.54,2.54,0,0,0,50,239.24a2.31,2.31,0,0,0-2.44-2.31,2.38,2.38,0,0,0-1.84,1.12,2.42,2.42,0,0,0-.35,1,3.77,3.77,0,0,0,.2,1.33.5.5,0,0,0,1-.27,3.28,3.28,0,0,1-.17-.86v-.2c0,.09,0-.06,0-.09a1,1,0,0,1,.05-.16l0-.09c0,.05,0,0,0,0a2.75,2.75,0,0,1,.17-.29c0,.06,0-.06.07-.07a.93.93,0,0,1,.14-.14s0,0,0-.05,0,0,0,0l.14-.09.15-.08h0l.11,0,.17,0h.33c.15,0-.05,0,0,0l.33.09c.05,0,0,0,0,0l.09,0a1,1,0,0,1,.17.1l.06,0c.07,0-.05,0,0,0l.13.11.11.13h0a.86.86,0,0,1,.07.1l.08.15v0c0-.06,0,0,0,0s0,.1,0,.15a.13.13,0,0,0,0,.06c0,.05,0-.08,0,0a2.81,2.81,0,0,1,0,.29c0-.1,0,0,0,.05a1.09,1.09,0,0,1,0,.17s-.06.15,0,.06l-.07.13a1.78,1.78,0,0,1-.17.27c0-.07,0,0-.05,0l-.1.11-.1.09-.06.06c0-.05,0,0,0,0l-.24.14-.07,0h0l-.16.05-.12,0h-.27l-.17-.05c-.05,0-.09-.05,0,0l-.11-.06s-.16-.12-.06,0c-.06-.06-.11-.1-.16-.16s-.07-.1,0,0l-.08-.12-.06-.1v0a2.58,2.58,0,0,1-.08-.26c0-.05,0-.1,0-.15,0,.11,0,0,0,0a1.41,1.41,0,0,1,0-.29s0-.16,0,0l0-.14a2.76,2.76,0,0,1,.08-.27s0-.07,0,0l0-.06a.75.75,0,0,1,.07-.12.83.83,0,0,1,.08-.12c-.08.11,0,0,0,0l.1-.09s0,0,0,0l.07,0,.12-.07,0,0c-.12.06,0,0,0,0a.52.52,0,0,0,.35-.62.5.5,0,0,0-.62-.34Z" transform="translate(-30.03 -51.49)"/><path class="cls-1" d="M32,189.78a7.87,7.87,0,0,0-1.88,3.13,3.34,3.34,0,0,0,.63,3c1.61,1.86,4.34.32,5.52-1.22a3.19,3.19,0,0,0,.66-3.17,2.25,2.25,0,0,0-2.47-1.13,3.79,3.79,0,0,0-3,4.6,2.35,2.35,0,0,0,2.23,1.65,2,2,0,0,0,2.13-1.44c.15-.62-.81-.89-1-.26a1,1,0,0,1-1,.7,1.36,1.36,0,0,1-1.31-.68c-.72-1.32.45-3.08,1.74-3.49a1.52,1.52,0,0,1,1.69.29c.49.65.08,1.55-.31,2.14-.72,1.08-2.6,2.53-3.91,1.54a2.21,2.21,0,0,1-.62-2.23,6.87,6.87,0,0,1,1.63-2.68.52.52,0,0,0,0-.71.51.51,0,0,0-.71,0Z" transform="translate(-30.03 -51.49)"/><path class="cls-1" d="M118.5,447.89a3.47,3.47,0,0,0,2,5.3,3.66,3.66,0,0,0,3.18-1.07,3.12,3.12,0,0,0,.69-3.25,3.55,3.55,0,0,0-3.16-2.36c-.64,0-.64,1,0,1a2.41,2.41,0,0,1,1.9,3.75,2.67,2.67,0,0,1-2.17,1,2.13,2.13,0,0,1-1.81-1.29,2.47,2.47,0,0,1,.21-2.54.5.5,0,0,0-.87-.51Z" transform="translate(-30.03 -51.49)"/></svg>