<svg id="Layer_1" data-name="Layer 1" xmlns="http://www.w3.org/2000/svg" viewBox="0 0 187.37 37.55"><defs><style>.cls-1{fill:#231f20;}</style></defs><path class="cls-1" d="M122.25,46.43a103.87,103.87,0,0,0-1.37,12.92c-.17,4-.4,8.25.31,12.18.54,3,2.54,5.76,5.93,5,3.19-.68,6.17-3.14,8.12-5.64A17.35,17.35,0,0,0,139,60.55a1.26,1.26,0,0,0-2.46-.34c-1.34,4.76-2,11.23,1.64,15.19,4.4,4.79,11.66,1.85,14.59-3,2.14-3.56,2.56-7.79,2.91-11.83h-2.5l1.27,15.72,2.46-.34c-1.09-3.33.71-6.93,2.77-9.5a15.49,15.49,0,0,1,3.59-3.36c.8-.51,2-1.23,3-1s1.81,1.61,2.33,2.48c.82,1.34,1.51,2.76,2.32,4.11,1.58,2.61,3.83,5.1,7.16,4.76,4.24-.43,7.87-3.57,9.84-7.22a17,17,0,0,0,1.91-6.09c.21-1.85.25-4.43-1.58-5.53s-4.07.08-5.53,1.14a10.46,10.46,0,0,0-3.23,3.9,13.65,13.65,0,0,0-.55,10.6,14,14,0,0,0,11.07,8.38,14.64,14.64,0,0,0,6.92-1,15.7,15.7,0,0,0,5.23-3.88c1.13-1.15-.63-2.92-1.77-1.77a14,14,0,0,1-4.05,3.2,12.45,12.45,0,0,1-5.42,1,11.49,11.49,0,0,1-9.48-6.39,11.11,11.11,0,0,1,.33-9.15,7.83,7.83,0,0,1,2.89-3.2c.53-.32,1.86-1.09,2.4-.61s.38,1.93.33,2.59a13.33,13.33,0,0,1-5.61,10A7.74,7.74,0,0,1,177,71a4.66,4.66,0,0,1-2.9-2c-2.64-3.33-4.47-11.26-10.22-9-3.09,1.2-5.61,3.88-7.37,6.62-1.87,2.9-3.14,6.61-2,10,.41,1.27,2.57,1.14,2.45-.33l-1.27-15.72a1.25,1.25,0,0,0-2.5,0c-.33,3.75-.68,7.84-2.87,11-1.7,2.48-5,4.53-8.11,3.5-5.52-1.85-4.45-10-3.25-14.23l-2.45-.33A14.76,14.76,0,0,1,132.78,70c-1.57,1.77-6.77,6.39-8.57,2.88a12.05,12.05,0,0,1-.84-5c-.09-2.27-.11-4.55-.05-6.82a100.56,100.56,0,0,1,1.34-14c.26-1.57-2.15-2.25-2.41-.67Z" transform="translate(-44.05 -43.41)"/><path class="cls-1" d="M114.42,53.51h17.71a1.25,1.25,0,0,0,0-2.5H114.42a1.25,1.25,0,0,0,0,2.5Z" transform="translate(-44.05 -43.41)"/><path class="cls-1" d="M139.88,52.4a1.25,1.25,0,0,0,0-2.5,1.25,1.25,0,0,0,0,2.5Z" transform="translate(-44.05 -43.41)"/><path class="cls-1" d="M73.55,64.63c-3,3.87-5.06,15,2.71,14.63,3.28-.16,6.23-2.74,8.4-5a26.67,26.67,0,0,0,5.43-8.35c.54-1.3-1.66-2.22-2.29-1-1.59,3.19-3.17,6.81-1.55,10.31,1.37,3,4.88,4.42,7.76,2.52,1.34-.89.09-3.05-1.26-2.16-2,1.31-3.93-.1-4.52-2.15-.71-2.5.65-5.08,1.73-7.26l-2.28-1a23.21,23.21,0,0,1-4.21,6.62c-1.64,1.83-3.81,4-6.22,4.68a3.15,3.15,0,0,1-3.18-.51c-.84-.85-.76-2.31-.69-3.41a12.28,12.28,0,0,1,2.32-6.75c1-1.27-1.18-2.52-2.15-1.26Z" transform="translate(-44.05 -43.41)"/><path class="cls-1" d="M111.75,62.6a7.64,7.64,0,0,0-3.66-2.49,12,12,0,0,0-5.36-.23,5.37,5.37,0,0,0-3.81,2.68,4.29,4.29,0,0,0,.07,4.3c1.06,1.55,3.09,1.81,4.81,2.1A37.21,37.21,0,0,1,109,70c1.21.38,3.57,1.3,3.65,2.86s-3.2,2.16-4.22,2.45a22.19,22.19,0,0,1-6.48.84,21.38,21.38,0,0,1-3.1-.27c-.54-.09-1.08-.2-1.61-.33l-.79-.2-.32-.1c-.36-.1-.42-.12-.16-.06l.32,1.22,0-.16-.57.75.12-.1-1,.13.13,0c1.53.51,2.18-1.9.66-2.41a1.41,1.41,0,0,0-1.82,1.08c-.25,1.26.92,1.74,1.9,2a24.76,24.76,0,0,0,12.37.21,15.07,15.07,0,0,0,5.47-2.18,3.59,3.59,0,0,0,1-4.72,7.77,7.77,0,0,0-4.42-3.29,28.35,28.35,0,0,0-5.47-1.17c-1.23-.2-4.08-.24-3.88-2.06.22-2,2.49-2.39,4.13-2.34a7.34,7.34,0,0,1,3.27.66,6.44,6.44,0,0,1,1.7,1.51c1.06,1.22,2.82-.56,1.77-1.77Z" transform="translate(-44.05 -43.41)"/><path class="cls-1" d="M68.19,44.24C64.62,53,66,62.81,62.9,71.7a11.54,11.54,0,0,1-3.2,5.19,8.25,8.25,0,0,1-6.65,1.4c-3.85-.65-8.12-4.36-6.07-8.62.69-1.44-1.46-2.71-2.16-1.26a8.28,8.28,0,0,0,2.08,9.7A12.33,12.33,0,0,0,58.12,80.5c3.8-1.13,6-4.58,7.19-8.13a57.38,57.38,0,0,0,2.33-12.8c.53-5,1.06-10,3-14.67.61-1.49-1.81-2.13-2.41-.66Z" transform="translate(-44.05 -43.41)"/><path class="cls-1" d="M208,64.75l22.22-1.46c1.6-.1,1.61-2.6,0-2.5L208,62.25c-1.6.11-1.61,2.61,0,2.5Z" transform="translate(-44.05 -43.41)"/></svg>