<svg id="Layer_1" data-name="Layer 1" xmlns="http://www.w3.org/2000/svg" viewBox="0 0 206.94 47.6"><defs><style>.cls-1{fill:#231f20;}</style></defs><path class="cls-1" d="M66.06,42.89C64.47,48.11,64.29,53.61,63.94,59c-.33,5.13-.85,10.48-3.38,15.06-4.16,7.52-14.39,13.54-23,10.16a7.55,7.55,0,0,1-4.62-4.52,5.59,5.59,0,0,1,1-5.84c1.8-1.84-1-4.67-2.83-2.83C27.34,74.87,28,81.22,31.54,85c4,4.2,10.47,4.74,15.82,3.57A25.51,25.51,0,0,0,61,80.41c3.91-4.5,5.72-10,6.47-15.8.89-6.89.44-14,2.49-20.66.75-2.47-3.11-3.52-3.86-1.06Z" transform="translate(-28.57 -41.49)"/><path class="cls-1" d="M125.64,46.23a107.31,107.31,0,0,0-1.39,13.12,56.91,56.91,0,0,0,.33,12.38c.62,3.43,3.07,6.38,6.86,5.56,3.31-.71,6.41-3.23,8.45-5.83a18.16,18.16,0,0,0,3.94-10.91A2,2,0,0,0,139.9,60c-1.42,5.05-2,11.75,1.83,15.92,4.74,5.16,12.6,2.1,15.77-3.17,2.21-3.66,2.64-8,3-12.2h-4l1.27,15.72,3.93-.54c-1.16-3.55,1.26-7.52,3.71-10a10.56,10.56,0,0,1,3.89-2.76l.37-.1c.59-.16-.39.09.17,0,.12,0,.56-.16.11,0a1.11,1.11,0,0,1,.3.07c-.6-.38.51.38.15.1a5.45,5.45,0,0,1,.83.86c2.14,2.72,3.15,6.58,6,8.88,4,3.18,9.5.76,12.66-2.48a17.12,17.12,0,0,0,3.9-6.49c.78-2.3,1.35-5.35.46-7.69-1.22-3.2-4.66-2.89-7.17-1.44a10.44,10.44,0,0,0-4.22,4.74,15,15,0,0,0,.36,12.91c2.41,4.72,7.62,7.52,12.61,8.66,6.41,1.46,13.26.82,19.61-.69a56.25,56.25,0,0,0,19.12-8.6c2.09-1.46.09-4.93-2-3.45-9,6.3-20.3,10.16-31.37,9.48-4.66-.29-9.57-1.65-12.87-5.13A10.67,10.67,0,0,1,186,62.42a7.47,7.47,0,0,1,2.47-4c.4-.32,1.6-1.16,2.16-1,.05,0-.25-.26-.08-.07a1.27,1.27,0,0,1,.12.39,12.27,12.27,0,0,1,0,2c-.41,4.11-3,8.44-7,10a5.59,5.59,0,0,1-2.51.48,3.53,3.53,0,0,1-1.3-.56A11.4,11.4,0,0,1,177.19,66c-1.43-2.55-3-6.41-6.16-7.12-3.79-.84-7.64,2.78-9.75,5.47-2.69,3.41-4.86,8-3.43,12.44.67,2,4.12,1.83,3.93-.53l-1.27-15.72a2,2,0,0,0-4,0c-.32,3.61-.65,7.59-2.77,10.67-1.51,2.19-4.53,4.1-7.26,3.16-5-1.75-3.81-9.46-2.72-13.31l-3.93-.53a14,14,0,0,1-3.47,8.93c-1.17,1.33-6,5.86-7.38,3a11.58,11.58,0,0,1-.74-4.63c-.09-2.27-.11-4.55-.05-6.82A99.19,99.19,0,0,1,129.5,47.3a2.06,2.06,0,0,0-1.4-2.46,2,2,0,0,0-2.46,1.39Z" transform="translate(-28.57 -41.49)"/><path class="cls-1" d="M118.54,54.26h17.71c2.57,0,2.58-4,0-4H118.54c-2.57,0-2.58,4,0,4Z" transform="translate(-28.57 -41.49)"/><path class="cls-1" d="M144,53.15c2.57,0,2.58-4,0-4s-2.58,4,0,4Z" transform="translate(-28.57 -41.49)"/><path class="cls-1" d="M77,64.25C73.65,68.61,72,80.43,80.38,80c3.5-.17,6.6-2.8,8.93-5.21a27.36,27.36,0,0,0,5.62-8.68c.86-2.09-2.65-3.56-3.66-1.54-1.73,3.48-3.29,7.28-1.55,11.07a6,6,0,0,0,8.79,2.78c2.14-1.41.14-4.88-2-3.45-1.56,1-2.95-.09-3.41-1.7-.66-2.28.66-4.7,1.65-6.68l-3.66-1.54a22,22,0,0,1-4,6.29c-1.55,1.72-3.61,3.8-5.89,4.49a2.43,2.43,0,0,1-2.45-.32c-.66-.69-.52-2-.47-2.88a11.56,11.56,0,0,1,2.22-6.37,2,2,0,0,0-.72-2.74,2,2,0,0,0-2.73.72Z" transform="translate(-28.57 -41.49)"/><path class="cls-1" d="M116.4,62.07a8.25,8.25,0,0,0-4-2.68,12.75,12.75,0,0,0-5.76-.23,6.07,6.07,0,0,0-4.26,3,5.05,5.05,0,0,0,.07,5.06c1.18,1.76,3.32,2.12,5.26,2.44a38.7,38.7,0,0,1,5.21,1,7.73,7.73,0,0,1,2.08,1c.31.22,1,.76,1,1.17,0,.83-3,1.54-3.67,1.73-3.85,1.1-8.68,1.34-12.45-.26l.88.52-.16-.19.51,1.95,0-.16-.92,1.19.13-.09-1.54.2.13,0c2.45.82,3.5-3,1.06-3.86a2.17,2.17,0,0,0-2.74,1.61c-.39,1.7,1,2.55,2.42,2.94a25.38,25.38,0,0,0,12.76.21,15.93,15.93,0,0,0,5.66-2.25,4.36,4.36,0,0,0,1.29-5.75A8.68,8.68,0,0,0,114.55,67a29.93,29.93,0,0,0-5.47-1.17,13.52,13.52,0,0,1-2.84-.59l-.33-.13s-.29-.25-.11-.11,0,0,0-.14c0,.27,0-.29,0-.36a1.73,1.73,0,0,1,.92-1.2,4.92,4.92,0,0,1,2.46-.39,6.63,6.63,0,0,1,2.89.56,5.72,5.72,0,0,1,1.55,1.39,2,2,0,0,0,2.83-2.83Z" transform="translate(-28.57 -41.49)"/></svg>