<svg id="Layer_1" data-name="Layer 1" xmlns="http://www.w3.org/2000/svg" viewBox="0 0 182.35 38.65"><defs><style>.cls-1{fill:#231f20;}</style></defs><path class="cls-1" d="M121.76,46.3a107.93,107.93,0,0,0-1.38,13.05,57,57,0,0,0,.32,12.32c.6,3.29,2.9,6.16,6.55,5.38,3.27-.7,6.33-3.2,8.35-5.77a17.9,17.9,0,0,0,3.86-10.73,1.76,1.76,0,0,0-3.44-.47c-1.39,5-2,11.57,1.77,15.67,4.63,5,12.28,2,15.37-3.11,2.19-3.63,2.62-8,3-12.08h-3.5l1.27,15.72,3.44-.47c-1.21-3.69,1.29-7.73,3.77-10.3a11.13,11.13,0,0,1,3.82-2.76,5,5,0,0,1,.55-.17c.57-.13-.31,0,.24,0s.11-.09.48.05c-.41-.16.4.27.26.16a4.48,4.48,0,0,1,.85.89c2.18,2.76,3.09,6.49,5.94,8.79,3.8,3.07,9,.86,12.15-2.18a16.51,16.51,0,0,0,4-6.45c.78-2.22,1.35-5.13.63-7.44-1-3.15-4.2-3-6.67-1.71a10.1,10.1,0,0,0-4.26,4.53,14.75,14.75,0,0,0,.12,12.65c2.2,4.59,7.11,7.4,11.87,8.63,6,1.55,12.41,1,18.47.2a39.75,39.75,0,0,0,15.49-6c1.92-1.17.16-4.19-1.77-3a37.33,37.33,0,0,1-12.44,5.25,55.21,55.21,0,0,1-14.51.88c-4.61-.39-9.37-1.91-12.55-5.42a10.92,10.92,0,0,1-2.08-10.31,7.49,7.49,0,0,1,2.72-4c.34-.23,1.78-1.17,2.21-.92s.15,2.44.09,2.94c-.56,4.14-3.22,8.46-7.3,9.91-1.45.51-2.78.69-4-.28a12.63,12.63,0,0,1-2.75-3.83c-1.36-2.45-2.91-6.24-6-6.79-3.66-.65-7.29,2.82-9.35,5.43-2.64,3.33-4.76,7.9-3.35,12.19.58,1.78,3.6,1.6,3.43-.46l-1.27-15.72a1.75,1.75,0,0,0-3.5,0c-.32,3.66-.66,7.67-2.8,10.79-1.58,2.3-4.7,4.24-7.55,3.28-5.19-1.77-4-9.64-2.89-13.62L136,60.55a14.22,14.22,0,0,1-3.54,9.1c-1.3,1.48-6.24,6-7.78,3a11.78,11.78,0,0,1-.77-4.75c-.09-2.27-.11-4.55-.05-6.82a100.06,100.06,0,0,1,1.32-13.83c.37-2.2-3-3.15-3.38-.93Z" transform="translate(-43.56 -42.81)"/><path class="cls-1" d="M114.42,54h17.71a1.75,1.75,0,0,0,0-3.5H114.42a1.75,1.75,0,0,0,0,3.5Z" transform="translate(-43.56 -42.81)"/><path class="cls-1" d="M139.88,52.9a1.75,1.75,0,0,0,0-3.5,1.75,1.75,0,0,0,0,3.5Z" transform="translate(-43.56 -42.81)"/><path class="cls-1" d="M73.11,64.37c-3.24,4.21-5.06,15.8,3.15,15.39,3.42-.17,6.48-2.78,8.75-5.13a27.31,27.31,0,0,0,5.56-8.58c.76-1.82-2.32-3.11-3.2-1.35-1.69,3.4-3.25,7.12-1.56,10.82a5.81,5.81,0,0,0,8.46,2.7c1.87-1.24.11-4.27-1.77-3-1.71,1.13-3.28-.1-3.78-1.85-.68-2.36.65-4.83,1.67-6.88l-3.2-1.35a22.43,22.43,0,0,1-4.07,6.41c-1.58,1.75-3.68,3.85-6,4.55a2.68,2.68,0,0,1-2.69-.38c-.74-.73-.61-2.12-.55-3.06a11.76,11.76,0,0,1,2.26-6.5,1.76,1.76,0,0,0-.63-2.39,1.8,1.8,0,0,0-2.4.62Z" transform="translate(-43.56 -42.81)"/><path class="cls-1" d="M112.1,62.25a8,8,0,0,0-3.88-2.62,12.42,12.42,0,0,0-5.62-.23,5.83,5.83,0,0,0-4.11,2.91,4.76,4.76,0,0,0,.07,4.8c1.14,1.69,3.24,2,5.1,2.33a38.1,38.1,0,0,1,5.21,1,8,8,0,0,1,2.14,1c.41.27,1.13.84,1.15,1.39s-.72.8-1.11,1a17.55,17.55,0,0,1-2.74,1,21.64,21.64,0,0,1-6.35.82,17.44,17.44,0,0,1-6.24-1.07l.77.45-.16-.19.45,1.7,0-.16-.8,1,.13-.1-1.35.18.13,0c2.14.72,3.06-2.66.93-3.37a1.91,1.91,0,0,0-2.44,1.43c-.35,1.55,1,2.28,2.25,2.63a25.17,25.17,0,0,0,12.63.21,15.55,15.55,0,0,0,5.59-2.23,4.09,4.09,0,0,0,1.2-5.4,8.34,8.34,0,0,0-4.71-3.53,30,30,0,0,0-5.48-1.17,16.26,16.26,0,0,1-2.84-.58c-.56-.21-.75-.43-.67-1,.21-1.66,2.28-1.88,3.63-1.84a6.91,6.91,0,0,1,3,.59,6.23,6.23,0,0,1,1.6,1.43c1.48,1.71,3.94-.78,2.47-2.47Z" transform="translate(-43.56 -42.81)"/><path class="cls-1" d="M67.71,44.11c-3.58,8.77-2.22,18.57-5.29,27.46a11,11,0,0,1-3.08,5,7.73,7.73,0,0,1-6.15,1.26c-3.5-.56-7.68-3.92-5.78-7.88,1-2-2-3.79-3-1.76a8.78,8.78,0,0,0,2.16,10.31A12.83,12.83,0,0,0,58.26,81c4-1.18,6.25-4.76,7.53-8.48,1.44-4.15,1.89-8.59,2.35-12.93.52-4.94,1-9.9,2.94-14.53a1.77,1.77,0,0,0-1.22-2.16,1.8,1.8,0,0,0-2.15,1.23Z" transform="translate(-43.56 -42.81)"/></svg>